<svg width="129" height="69" viewBox="0 0 129 69" fill="none" xmlns="http://www.w3.org/2000/svg">
<path d="M14.3547 47.9229L14.2513 48.3771C14.1182 48.3818 13.9483 48.4021 13.7424 48.4389C13.5364 48.4757 13.3822 48.5102 13.2812 48.5423C13.1018 48.6018 12.9734 48.6958 12.8959 48.8242C12.8184 48.9526 12.7604 49.0912 12.7236 49.24L11.0683 56.3469C11.0589 56.3829 11.0518 56.4244 11.0479 56.4698C11.044 56.5152 11.0409 56.552 11.0409 56.5802C11.0409 56.6765 11.0612 56.7627 11.1027 56.8378C11.1442 56.9146 11.2131 56.9819 11.3095 57.0414C11.3737 57.0829 11.5099 57.1236 11.719 57.1652C11.9281 57.2067 12.0917 57.2294 12.2107 57.2341L12.1003 57.6882H7.79596L7.90636 57.2341C8.07158 57.2247 8.27831 57.2082 8.52575 57.1824C8.77319 57.1581 8.94781 57.1197 9.04882 57.0688C9.20934 56.9819 9.33933 56.8809 9.43799 56.7658C9.53666 56.6507 9.60165 56.5113 9.63375 56.3461L11.3283 49.0716H11.25L5.92762 57.5301H5.60109L4.37564 48.9001H4.30516L2.9184 54.9014C2.86358 55.1449 2.81738 55.3806 2.78058 55.61C2.74378 55.8395 2.72577 56.025 2.72577 56.1676C2.72577 56.3187 2.74221 56.4487 2.77431 56.5567C2.80642 56.6648 2.85262 56.7525 2.91213 56.8214C2.99435 56.9177 3.16897 57.0046 3.4352 57.0829C3.70143 57.1612 3.90973 57.2113 4.06164 57.2341L3.95123 57.6882H0L0.110411 57.2341C0.325747 57.2113 0.541866 57.1792 0.757203 57.1377C0.972539 57.0962 1.17221 57.0187 1.35623 56.9036C1.53946 56.7799 1.69607 56.5779 1.82449 56.2983C1.95291 56.0188 2.08367 55.5779 2.21679 54.9766L3.389 49.9111C3.41171 49.8053 3.42894 49.7106 3.44069 49.6253C3.45243 49.5415 3.45791 49.4569 3.45791 49.3747C3.45791 49.2275 3.4399 49.1053 3.40231 49.0059C3.36551 48.908 3.31775 48.8242 3.25745 48.7553C3.13843 48.6222 2.97634 48.5282 2.77197 48.4734C2.56759 48.4186 2.38045 48.3865 2.21131 48.3771L2.31467 47.9229H5.61362L6.67699 55.2671L10.4716 49.1202C10.6141 48.8861 10.7449 48.6457 10.8639 48.3974C10.9829 48.1492 11.0518 47.991 11.0706 47.9229H14.3547Z" fill="#D9EBFF"/>
<path d="M18.1258 57.9223C17.1626 57.9223 16.4094 57.718 15.8659 57.31C15.3225 56.902 15.0508 56.3578 15.0508 55.6789C15.0508 55.5826 15.0563 55.4926 15.068 55.4064C15.0798 55.3226 15.097 55.2248 15.1197 55.1143L16.4626 49.3057C16.4712 49.2689 16.4783 49.2298 16.483 49.1891C16.4877 49.1484 16.49 49.1084 16.49 49.0724C16.49 48.9808 16.4697 48.8946 16.4282 48.814C16.3867 48.7341 16.3209 48.6644 16.2293 48.6041C16.1282 48.5399 15.9928 48.4898 15.8229 48.453C15.6529 48.4162 15.5112 48.3912 15.3961 48.3771L15.5065 47.9229H19.5587L19.4483 48.3771C19.3199 48.3818 19.1547 48.4021 18.9527 48.4389C18.7507 48.4757 18.5995 48.5102 18.4985 48.5423C18.3192 48.6018 18.1908 48.6958 18.1133 48.8242C18.0357 48.9526 17.9778 49.0896 17.941 49.2353L16.6928 54.6664C16.6654 54.7862 16.6411 54.9194 16.6208 55.0666C16.6004 55.2138 16.5895 55.3555 16.5895 55.4933C16.5895 55.7322 16.6145 55.9397 16.6654 56.1166C16.7163 56.2936 16.8259 56.4706 16.9959 56.6499C17.1384 56.8057 17.3373 56.9333 17.5918 57.0312C17.847 57.1307 18.1673 57.1792 18.5533 57.1792C19.0772 57.1792 19.5251 57.0978 19.897 56.9341C20.269 56.772 20.579 56.5684 20.8273 56.3257C21.0614 56.0916 21.2532 55.8324 21.4028 55.5481C21.5516 55.2639 21.6565 54.9906 21.716 54.7291C21.8812 54.0682 22.0363 53.4245 22.1788 52.7989C22.3213 52.1717 22.4732 51.4873 22.6345 50.7442C22.7128 50.377 22.7661 50.0786 22.7966 49.8492C22.8264 49.6197 22.8413 49.4318 22.8413 49.2846C22.8413 49.1515 22.8272 49.045 22.7998 48.9643C22.7723 48.8845 22.7246 48.8148 22.6557 48.7545C22.5226 48.6402 22.3229 48.5509 22.0566 48.4898C21.7904 48.4272 21.5884 48.3896 21.4514 48.3755L21.5618 47.9213H25.5459L25.4355 48.3755C25.3117 48.3802 25.1168 48.4092 24.8505 48.4616C24.5843 48.5141 24.369 48.5885 24.2037 48.6848C24.0158 48.7952 23.849 49.0372 23.7049 49.4115C23.5609 49.7857 23.4426 50.1765 23.3502 50.5844C23.2077 51.2406 23.0621 51.9031 22.9125 52.5695C22.763 53.2382 22.5922 53.9609 22.3988 54.7408C22.2375 55.3782 21.9956 55.9052 21.6722 56.321C21.3488 56.7368 20.9854 57.0602 20.5814 57.2943C20.1914 57.5191 19.7882 57.6796 19.3708 57.7759C18.9535 57.8722 18.5384 57.9223 18.1258 57.9223Z" fill="#D9EBFF"/>
<path d="M32.5722 47.9229L32.4689 48.3771C32.3358 48.3818 32.1705 48.399 31.9732 48.428C31.7759 48.4585 31.606 48.4961 31.4642 48.5423C31.2849 48.6018 31.1581 48.6911 31.0821 48.8109C31.0061 48.9307 30.9482 49.0724 30.9067 49.2376L29.5959 55.0603C29.527 55.3681 29.3978 55.693 29.2075 56.0344C29.0172 56.3758 28.7729 56.682 28.4746 56.9529C28.1582 57.2419 27.8027 57.476 27.4081 57.6546C27.0142 57.8339 26.553 57.9231 26.0252 57.9231C25.3831 57.9231 24.8695 57.7626 24.4842 57.4416C24.0989 57.1205 23.9063 56.675 23.9063 56.1065C23.9063 55.6523 24.0199 55.2553 24.2469 54.9155C24.474 54.5756 24.7708 54.4065 25.138 54.4065C25.4137 54.4065 25.6086 54.4731 25.723 54.6062C25.8373 54.7393 25.8952 54.8951 25.8952 55.0744C25.8952 55.235 25.8561 55.4002 25.7786 55.5701C25.701 55.74 25.5992 55.9052 25.4755 56.0658C25.3651 56.2083 25.2437 56.3563 25.1106 56.509C24.9775 56.6632 24.8742 56.7924 24.8005 56.8981C24.8695 57.0359 24.9971 57.1597 25.1858 57.2701C25.3737 57.3805 25.6533 57.4353 26.0244 57.4353C26.3588 57.4353 26.6485 57.3586 26.8936 57.2051C27.1387 57.0516 27.3415 56.8457 27.502 56.5888C27.6626 56.332 27.8012 56.029 27.9178 55.6805C28.0345 55.3321 28.141 54.9421 28.2373 54.5099L29.4087 49.3065C29.4134 49.2846 29.4189 49.2502 29.426 49.204C29.433 49.1578 29.4369 49.1171 29.4369 49.0803C29.4369 48.9839 29.4158 48.897 29.3743 48.8187C29.3328 48.7404 29.2615 48.6739 29.1613 48.619C29.0423 48.5454 28.8677 48.4898 28.6382 48.4507C28.4088 48.4115 28.2389 48.3873 28.1293 48.3779L28.2326 47.9237H32.5722V47.9229Z" fill="#D9EBFF"/>
<path d="M37.9038 47.9229L37.8005 48.3771C37.6579 48.3818 37.4724 48.4021 37.2429 48.4389C37.0135 48.4757 36.8436 48.5102 36.7339 48.5423C36.5413 48.6018 36.4035 48.6934 36.3213 48.8179C36.2391 48.9424 36.1788 49.0779 36.142 49.2267L34.4858 56.3618C34.4764 56.3931 34.4694 56.4291 34.4647 56.4706C34.46 56.5121 34.4577 56.5489 34.4577 56.581C34.4577 56.6867 34.4804 56.776 34.5266 56.8496C34.5728 56.9232 34.6558 56.9874 34.7748 57.0422C34.8437 57.0743 34.9948 57.1127 35.2289 57.1557C35.4631 57.2004 35.6369 57.2262 35.752 57.2356L35.6487 57.6898H31.244L31.3474 57.2356C31.4758 57.2262 31.6591 57.2129 31.8979 57.1941C32.1367 57.1753 32.3059 57.1479 32.4069 57.1119C32.5862 57.0477 32.7209 56.96 32.8133 56.8472C32.9057 56.7345 32.9667 56.5982 32.9988 56.4377L34.6503 49.294C34.6597 49.2525 34.6667 49.2118 34.6706 49.1703C34.6746 49.1288 34.6777 49.0881 34.6777 49.0466C34.6777 48.955 34.6581 48.8743 34.619 48.8054C34.5798 48.7365 34.4984 48.6746 34.3746 48.6198C34.2509 48.565 34.0818 48.5125 33.8688 48.4656C33.6558 48.4162 33.4984 48.388 33.3974 48.3794L33.5008 47.9253H37.9038V47.9229Z" fill="#D9EBFF"/>
<path d="M44.9732 57.9223C44.01 57.9223 43.2568 57.718 42.7133 57.31C42.1699 56.902 41.8982 56.3578 41.8982 55.6789C41.8982 55.5826 41.9037 55.4926 41.9154 55.4064C41.9271 55.3226 41.9444 55.2248 41.9671 55.1143L43.31 49.3057C43.3186 49.2689 43.3257 49.2298 43.3304 49.1891C43.3351 49.1484 43.3374 49.1084 43.3374 49.0724C43.3374 48.9808 43.317 48.8946 43.2755 48.814C43.234 48.7341 43.1683 48.6644 43.0767 48.6041C42.9756 48.5399 42.8402 48.4898 42.6703 48.453C42.5003 48.4162 42.3586 48.3912 42.2435 48.3771L42.3539 47.9229H46.4061L46.2957 48.3771C46.1673 48.3818 46.0021 48.4021 45.8001 48.4389C45.598 48.4757 45.4469 48.5102 45.3459 48.5423C45.1666 48.6018 45.0382 48.6958 44.9606 48.8242C44.8831 48.9526 44.8252 49.0896 44.7884 49.2353L43.5402 54.6664C43.5128 54.7862 43.4885 54.9194 43.4682 55.0666C43.4478 55.2138 43.4369 55.3555 43.4369 55.4933C43.4369 55.7322 43.4619 55.9397 43.5128 56.1166C43.5637 56.2936 43.6733 56.4706 43.8433 56.6499C43.9858 56.8057 44.1847 56.9333 44.4391 57.0312C44.6944 57.1307 45.0147 57.1792 45.4007 57.1792C45.9246 57.1792 46.3725 57.0978 46.7444 56.9341C47.1164 56.772 47.4264 56.5684 47.6747 56.3257C47.9088 56.0916 48.1006 55.8324 48.2502 55.5481C48.399 55.2639 48.5039 54.9906 48.5634 54.7291C48.7286 54.0682 48.8837 53.4245 49.0262 52.7989C49.1687 52.1717 49.3206 51.4873 49.4819 50.7442C49.5602 50.377 49.6135 50.0786 49.644 49.8492C49.6738 49.6197 49.6886 49.4318 49.6886 49.2846C49.6886 49.1515 49.6746 49.045 49.6471 48.9643C49.6197 48.8845 49.572 48.8148 49.5031 48.7545C49.37 48.6402 49.1703 48.5509 48.904 48.4898C48.6378 48.4272 48.4358 48.3896 48.2988 48.3755L48.4092 47.9213H52.3933L52.2829 48.3755C52.1591 48.3802 51.9642 48.4092 51.6979 48.4616C51.4317 48.5141 51.2164 48.5885 51.0511 48.6848C50.8632 48.7952 50.6964 49.0372 50.5523 49.4115C50.4083 49.7857 50.29 50.1765 50.1976 50.5844C50.0551 51.2406 49.9095 51.9031 49.7599 52.5695C49.6103 53.2382 49.4396 53.9609 49.2462 54.7408C49.0849 55.3782 48.843 55.9052 48.5196 56.321C48.1962 56.7368 47.8328 57.0602 47.4288 57.2943C47.0388 57.5191 46.6356 57.6796 46.2182 57.7759C45.8009 57.8722 45.3858 57.9223 44.9732 57.9223Z" fill="#D9EBFF"/>
<path d="M63.2055 47.9229L63.0951 48.3771C62.9714 48.3818 62.767 48.4186 62.4828 48.4875C62.1985 48.5564 61.9918 48.6277 61.8634 48.7005C61.6661 48.8148 61.5048 49.0341 61.3779 49.3582C61.2518 49.6808 61.1289 50.0951 61.0091 50.6001L59.3451 57.7853H58.7304L54.733 49.5368L53.4997 54.8677C53.4441 55.1065 53.3987 55.3469 53.3611 55.5905C53.3236 55.834 53.3055 56.0313 53.3055 56.1824C53.3055 56.343 53.322 56.4729 53.3541 56.5716C53.3862 56.6703 53.43 56.7509 53.4849 56.8159C53.5632 56.9122 53.7581 57.0038 54.0698 57.0915C54.3814 57.1792 54.5882 57.227 54.6892 57.2364L54.5858 57.6906H50.5821L50.6855 57.2364C50.8366 57.2223 51.0598 57.1785 51.3534 57.1017C51.6471 57.0265 51.842 56.9545 51.9384 56.8856C52.1216 56.7619 52.2782 56.5614 52.4066 56.2834C52.535 56.0055 52.6681 55.5591 52.8067 54.9444L53.9069 50.2094C53.939 50.0583 53.9625 49.9291 53.9758 49.8202C53.9899 49.7129 53.9962 49.6127 53.9962 49.5211C53.9962 49.4107 53.9837 49.3073 53.9586 49.2087C53.9328 49.11 53.8748 49.0051 53.7824 48.8955C53.6219 48.7122 53.4253 48.5854 53.1944 48.5133C52.9626 48.4429 52.7551 48.3982 52.5718 48.3794L52.6822 47.9253H55.4879L59.1932 55.5537L60.3177 50.6918C60.3725 50.4482 60.4187 50.2117 60.4555 49.98C60.4923 49.7482 60.5103 49.5493 60.5103 49.3841C60.5103 49.2329 60.4954 49.1053 60.4657 49.0027C60.4359 48.8986 60.3913 48.8226 60.3318 48.7717C60.2214 48.6754 60.0358 48.5924 59.7742 48.5212C59.5127 48.4499 59.2974 48.4029 59.1274 48.3794L59.2379 47.9253H63.2055V47.9229Z" fill="#D9EBFF"/>
<path d="M68.2678 47.9229L68.1644 48.3771C68.0219 48.3818 67.8364 48.4021 67.6069 48.4389C67.3775 48.4757 67.2076 48.5102 67.0979 48.5423C66.9053 48.6018 66.7675 48.6934 66.6853 48.8179C66.6031 48.9424 66.5428 49.0779 66.506 49.2267L64.8498 56.3618C64.8404 56.3931 64.8334 56.4291 64.8287 56.4706C64.824 56.5121 64.8224 56.5489 64.8224 56.581C64.8224 56.6867 64.8451 56.776 64.8913 56.8496C64.9375 56.9232 65.0198 56.9874 65.1388 57.0422C65.2077 57.0743 65.3588 57.1127 65.5929 57.1557C65.8271 57.2004 66.0009 57.2262 66.116 57.2356L66.0127 57.6898H61.608L61.7114 57.2356C61.8398 57.2262 62.0231 57.2129 62.2619 57.1941C62.5007 57.1753 62.6699 57.1479 62.7709 57.1119C62.9502 57.0477 63.0849 56.96 63.1773 56.8472C63.2697 56.7345 63.3307 56.5982 63.3628 56.4377L65.0143 49.294C65.0237 49.2525 65.0299 49.2118 65.0339 49.1703C65.0378 49.1288 65.0417 49.0881 65.0417 49.0466C65.0417 48.955 65.0221 48.8743 64.983 48.8054C64.9438 48.7365 64.8631 48.6746 64.7386 48.6198C64.6141 48.565 64.4458 48.5125 64.2328 48.4656C64.0198 48.4162 63.8624 48.388 63.7614 48.3794L63.864 47.9253H68.2678V47.9229Z" fill="#D9EBFF"/>
<path d="M78.5108 47.9229L78.4074 48.3771C78.2884 48.3818 78.1389 48.4068 77.9603 48.453C77.7818 48.4992 77.6252 48.5587 77.4921 48.6324C77.2947 48.7428 77.135 48.8712 77.0144 49.0176C76.8923 49.1648 76.7654 49.3387 76.6323 49.5407C76.1554 50.2705 75.4272 51.4129 74.4468 52.9681C73.468 54.5232 72.4595 56.1386 71.4227 57.8135H70.8519C70.6318 56.267 70.3946 54.5897 70.1393 52.7786C69.8856 50.9689 69.7188 49.8116 69.6405 49.3065C69.6178 49.1554 69.5732 49.0286 69.5058 48.9244C69.4401 48.8218 69.3422 48.7216 69.2138 48.6253C69.108 48.547 68.9843 48.4891 68.8418 48.4499C68.6993 48.4108 68.5662 48.3865 68.4425 48.3771L68.5458 47.9229H72.5017L72.3976 48.3771C71.9113 48.3998 71.5684 48.4476 71.3695 48.5188C71.1706 48.5901 71.0703 48.6942 71.0703 48.8312C71.0703 48.8774 71.0719 48.9268 71.0766 48.9785C71.0813 49.0317 71.0844 49.0693 71.0844 49.0928C71.144 49.5422 71.2473 50.2838 71.3945 51.319C71.5417 52.3534 71.7508 53.809 72.0233 55.6852C72.6599 54.69 73.3098 53.6571 73.9723 52.5883C74.6347 51.5202 75.1124 50.7379 75.406 50.2423C75.6817 49.7834 75.8492 49.46 75.9119 49.2721C75.9745 49.0842 76.0051 48.9667 76.0051 48.9213C76.0051 48.8297 75.9612 48.7514 75.8743 48.6872C75.7874 48.623 75.677 48.5705 75.5439 48.529C75.4107 48.4828 75.2643 48.4483 75.103 48.4256C74.9417 48.4029 74.8047 48.3865 74.6903 48.3771L74.7929 47.9229H78.5108Z" fill="#D9EBFF"/>
<path d="M86.3498 47.9229L85.8064 50.2767H85.2904C85.263 49.7905 85.1604 49.3817 84.9842 49.0521C84.8064 48.7216 84.57 48.5337 84.2716 48.4875C84.1338 48.4695 83.9662 48.4554 83.7689 48.446C83.5716 48.4366 83.3492 48.4319 83.101 48.4319H81.5318L80.6234 52.362H81.7267C82.0674 52.362 82.3313 52.3291 82.52 52.2625C82.7087 52.196 82.8763 52.084 83.0243 51.9282C83.1629 51.7904 83.296 51.6016 83.4244 51.3597C83.5528 51.1193 83.6444 50.9165 83.7008 50.7513H84.2168L83.3359 54.5639H82.8199C82.8199 54.5138 82.8238 54.4527 82.8301 54.3822C82.8379 54.311 82.841 54.2342 82.841 54.1512C82.841 53.9813 82.8293 53.8184 82.8066 53.6626C82.7839 53.5068 82.7525 53.3917 82.711 53.3189C82.6147 53.1395 82.4777 53.0229 82.2999 52.9681C82.1206 52.9132 81.8888 52.8858 81.6007 52.8858H80.5044L79.813 55.8739C79.7856 55.9851 79.7629 56.1057 79.7441 56.2341C79.7261 56.3633 79.7167 56.4643 79.7167 56.5379C79.7167 56.7916 79.8075 56.9592 79.9892 57.043C80.1708 57.1252 80.5718 57.1667 81.1912 57.1667C81.9632 57.1667 82.4863 57.1393 82.7627 57.0845C83.0391 57.0289 83.2427 56.9482 83.3766 56.8425C83.6382 56.6303 83.9443 56.2928 84.2959 55.8277C84.6475 55.3626 84.8832 55.0251 85.0022 54.8129H85.4979L84.6506 57.6898H76.5375L76.6409 57.2356C76.7834 57.2262 76.9714 57.2074 77.2055 57.1777C77.4396 57.1479 77.5978 57.1166 77.68 57.0845C77.8405 57.025 77.9627 56.9357 78.0488 56.8159C78.1326 56.6969 78.1921 56.5567 78.2242 56.3962L79.8631 49.3073C79.8725 49.2705 79.8796 49.229 79.8866 49.1836C79.8937 49.1382 79.8968 49.0943 79.8968 49.0528C79.8968 48.9612 79.878 48.8782 79.8388 48.8054C79.7997 48.7326 79.73 48.6699 79.629 48.6198C79.5186 48.5603 79.3628 48.5071 79.1607 48.4616C78.9587 48.4162 78.7998 48.388 78.6854 48.3794L78.7896 47.9253H86.3498V47.9229Z" fill="#D9EBFF"/>
<path d="M95.4346 57.2348L95.3242 57.689H92.8545C92.4638 56.7619 92.0942 55.9702 91.7473 55.3109C91.4004 54.6531 91.0332 53.9633 90.6463 53.2429H89.6284L88.8994 56.3938C88.89 56.4314 88.8829 56.4753 88.8759 56.5254C88.8688 56.5755 88.8657 56.6123 88.8657 56.6358C88.8657 56.7415 88.8845 56.8331 88.9236 56.9114C88.9628 56.9897 89.0325 57.0516 89.1335 57.097C89.1977 57.1244 89.3347 57.1534 89.543 57.1824C89.7521 57.2129 89.9252 57.2301 90.063 57.234L89.9526 57.6882H85.8197L85.9301 57.234C86.0444 57.2246 86.2073 57.209 86.4187 57.1855C86.6301 57.162 86.7812 57.133 86.8729 57.0962C87.0381 57.032 87.1642 56.9396 87.2511 56.8182C87.338 56.6969 87.3983 56.5551 87.4304 56.3946L89.0779 49.265C89.0873 49.2188 89.0951 49.1719 89.1022 49.1241C89.1092 49.0748 89.1131 49.0286 89.1131 48.9824C89.1131 48.886 89.0951 48.8015 89.0583 48.7279C89.0215 48.6543 88.9526 48.5971 88.8516 48.5556C88.7553 48.5188 88.6143 48.482 88.4311 48.4452C88.2479 48.4084 88.096 48.3857 87.977 48.3763L88.0811 47.9221H92.4732C92.8678 47.9221 93.2288 47.9613 93.5546 48.0388C93.8803 48.1163 94.1536 48.2244 94.3744 48.3622C94.6179 48.5094 94.809 48.702 94.9491 48.9401C95.0885 49.1789 95.159 49.4608 95.159 49.7865C95.159 50.218 95.0783 50.6119 94.917 50.9674C94.7565 51.3229 94.5396 51.6267 94.264 51.8788C93.9743 52.1404 93.6462 52.3573 93.2789 52.5287C92.9109 52.7018 92.5076 52.838 92.066 52.9383C92.4246 53.6313 92.7159 54.1794 92.9407 54.5835C93.1654 54.9875 93.43 55.4847 93.7331 56.0767C93.8889 56.375 94.0291 56.5888 94.1528 56.7204C94.2765 56.8503 94.4073 56.9553 94.5451 57.0328C94.6594 57.097 94.8098 57.1456 94.993 57.1777C95.1762 57.2098 95.3242 57.2301 95.4346 57.2348ZM93.4661 49.9322C93.4661 49.4639 93.322 49.0998 93.0346 48.8383C92.748 48.5767 92.3447 48.446 91.8256 48.446H90.7301L89.7646 52.6854H90.7411C91.4936 52.6854 92.1357 52.423 92.6681 51.8968C93.1998 51.3722 93.4661 50.7168 93.4661 49.9322Z" fill="#D9EBFF"/>
<path d="M99.2888 57.8879C98.7242 57.8879 98.2301 57.8174 97.8049 57.6772C97.3813 57.5379 97.0383 57.3758 96.7768 57.1926L96.3845 57.6953H95.834L96.5082 54.3509H97.0657C97.0884 54.7502 97.1433 55.1238 97.227 55.473C97.3116 55.8214 97.4502 56.1362 97.6428 56.4158C97.8355 56.7047 98.0845 56.9287 98.3922 57.0861C98.6992 57.245 99.0789 57.3241 99.5331 57.3241C100.215 57.3241 100.762 57.1354 101.175 56.7556C101.587 56.3782 101.794 55.8598 101.794 55.2044C101.794 54.8513 101.707 54.5365 101.532 54.2616C101.358 53.986 101.098 53.773 100.749 53.6219C100.42 53.4794 100.093 53.3525 99.7704 53.2405C99.4478 53.1286 99.1298 52.9954 98.8182 52.8443C98.4063 52.647 98.0743 52.3643 97.8222 51.9939C97.57 51.6251 97.4447 51.2086 97.4447 50.745C97.4447 50.3041 97.5426 49.8985 97.7368 49.5266C97.9326 49.1546 98.1902 48.8336 98.5112 48.5634C98.8229 48.3019 99.2003 48.0928 99.6435 47.937C100.085 47.7812 100.525 47.7029 100.961 47.7029C101.369 47.7029 101.756 47.7514 102.121 47.8477C102.485 47.9441 102.852 48.1249 103.218 48.3912L103.596 47.9229H104.147L103.451 51.1647H102.894C102.88 50.8115 102.845 50.4467 102.787 50.0708C102.73 49.6949 102.632 49.3825 102.495 49.1351C102.344 48.8641 102.134 48.6527 101.863 48.4984C101.593 48.3458 101.233 48.2682 100.784 48.2682C100.244 48.2682 99.7899 48.4554 99.4235 48.8289C99.0578 49.204 98.8746 49.6472 98.8746 50.1608C98.8746 50.5007 98.9419 50.7888 99.0774 51.0253C99.2128 51.2618 99.4219 51.4529 99.7069 51.5993C100.008 51.7551 100.326 51.8898 100.658 52.0026C100.99 52.1153 101.287 52.2328 101.549 52.3565C102.075 52.6039 102.486 52.9023 102.781 53.2515C103.077 53.6 103.224 54.0267 103.224 54.5318C103.224 55.018 103.119 55.4722 102.908 55.8943C102.697 56.3163 102.415 56.6695 102.062 56.9545C101.69 57.2575 101.273 57.4893 100.813 57.6499C100.351 57.808 99.844 57.8879 99.2888 57.8879Z" fill="#D9EBFF"/>
<path d="M110.16 47.9229L110.056 48.3771C109.914 48.3818 109.728 48.4021 109.499 48.4389C109.269 48.4757 109.1 48.5102 108.99 48.5423C108.797 48.6018 108.659 48.6934 108.577 48.8179C108.495 48.9424 108.435 49.0779 108.398 49.2267L106.742 56.3618C106.732 56.3931 106.725 56.4291 106.721 56.4706C106.718 56.5121 106.714 56.5489 106.714 56.581C106.714 56.6867 106.736 56.776 106.783 56.8496C106.829 56.9232 106.912 56.9874 107.031 57.0422C107.1 57.0743 107.251 57.1127 107.485 57.1557C107.719 57.2004 107.893 57.2262 108.008 57.2356L107.905 57.6898H103.5L103.603 57.2356C103.732 57.2262 103.915 57.2129 104.154 57.1941C104.393 57.1753 104.562 57.1479 104.663 57.1119C104.842 57.0477 104.977 56.96 105.069 56.8472C105.162 56.7345 105.223 56.5982 105.255 56.4377L106.905 49.294C106.915 49.2525 106.922 49.2118 106.927 49.1703C106.931 49.1288 106.933 49.0881 106.933 49.0466C106.933 48.955 106.914 48.8743 106.875 48.8054C106.836 48.7365 106.754 48.6746 106.63 48.6198C106.505 48.565 106.338 48.5125 106.124 48.4656C105.911 48.4162 105.753 48.388 105.652 48.3794L105.756 47.9253H110.16V47.9229Z" fill="#D9EBFF"/>
<path d="M119.309 47.9229L118.696 50.5727H118.222C118.217 50.4122 118.196 50.2078 118.157 49.9604C118.118 49.7129 118.062 49.4898 117.989 49.2924C117.91 49.081 117.809 48.9001 117.683 48.749C117.557 48.5979 117.408 48.5078 117.234 48.4804C117.097 48.4624 116.922 48.4483 116.709 48.4389C116.496 48.4295 116.299 48.4248 116.116 48.4248H115.683L113.862 56.3053C113.853 56.3414 113.846 56.3821 113.842 56.4244C113.837 56.469 113.835 56.5105 113.835 56.552C113.835 56.6624 113.855 56.7533 113.896 56.8237C113.938 56.8958 114.015 56.9584 114.131 57.0132C114.222 57.05 114.388 57.0947 114.629 57.1479C114.871 57.2012 115.067 57.2293 115.218 57.2333L115.108 57.6874H110.493L110.603 57.2333C110.741 57.2239 110.94 57.2059 111.202 57.1784C111.464 57.151 111.654 57.1166 111.773 57.0751C111.956 57.0062 112.094 56.9122 112.186 56.7932C112.277 56.6742 112.341 56.5317 112.378 56.3664L114.214 48.424H113.849C113.711 48.424 113.539 48.4272 113.332 48.435C113.125 48.4413 112.914 48.4561 112.698 48.4796C112.546 48.4976 112.369 48.5893 112.167 48.7521C111.964 48.915 111.762 49.1061 111.56 49.3261C111.367 49.5414 111.193 49.7615 111.037 49.9831C110.881 50.2063 110.759 50.402 110.671 50.5719H110.19L110.802 47.9221L119.309 47.9229Z" fill="#D9EBFF"/>
<path d="M128.455 47.9229L128.345 48.3771C128.263 48.3818 128.134 48.4107 127.96 48.4632C127.786 48.5157 127.648 48.5744 127.547 48.6386C127.345 48.7443 127.204 48.8273 127.123 48.89C127.043 48.951 126.884 49.1084 126.646 49.3614C126.21 49.8202 125.747 50.3566 125.255 50.9721C124.764 51.5868 124.251 52.2289 123.713 52.8991C123.475 53.1928 123.308 53.4308 123.213 53.6117C123.118 53.7926 123.029 54.0526 122.946 54.3924L122.512 56.2921C122.503 56.3289 122.496 56.3704 122.492 56.4158C122.488 56.4612 122.486 56.5004 122.486 56.5325C122.486 56.6468 122.505 56.7439 122.547 56.8214C122.588 56.8989 122.666 56.9663 122.781 57.0211C122.882 57.0673 123.051 57.1127 123.287 57.1589C123.522 57.2051 123.709 57.2301 123.847 57.2348L123.744 57.689H119.178L119.281 57.2348C119.414 57.2254 119.609 57.2098 119.866 57.1863C120.123 57.1628 120.311 57.1291 120.431 57.0829C120.614 57.014 120.751 56.9193 120.84 56.7971C120.93 56.6765 120.992 56.5301 121.029 56.3602L121.525 54.2201C121.539 54.1512 121.552 54.0823 121.566 54.0134C121.58 53.9445 121.587 53.903 121.587 53.8897C121.587 53.7793 121.566 53.6368 121.525 53.4598C121.483 53.2828 121.433 53.0957 121.374 52.8984C121.218 52.3526 121.051 51.7857 120.875 51.1984C120.697 50.6111 120.522 50.0606 120.348 49.5469C120.261 49.2948 120.172 49.0991 120.082 48.9589C119.994 48.8187 119.884 48.7005 119.756 48.6042C119.664 48.5353 119.545 48.4828 119.402 48.446C119.256 48.4092 119.123 48.3865 118.999 48.3771L119.109 47.9229H123.112L123.002 48.3771C122.896 48.3818 122.76 48.3888 122.595 48.3974C122.43 48.4061 122.281 48.4202 122.148 48.4389C122.02 48.457 121.903 48.493 121.8 48.5462C121.698 48.5995 121.646 48.666 121.646 48.749C121.646 48.8367 121.676 48.9871 121.735 49.2001C121.795 49.4138 121.889 49.7325 122.017 50.1546C122.128 50.5226 122.258 50.9345 122.407 51.391C122.556 51.8483 122.723 52.3682 122.908 52.9508C123.577 52.1388 124.176 51.4004 124.702 50.7364C125.228 50.0731 125.582 49.6119 125.766 49.3551C125.908 49.1578 125.993 49.0301 126.02 48.973C126.048 48.9158 126.062 48.8665 126.062 48.8258C126.062 48.6692 125.949 48.5588 125.724 48.4945C125.499 48.4303 125.218 48.3912 124.878 48.3779L124.988 47.9237H128.455V47.9229Z" fill="#D9EBFF"/>
<path d="M28.6335 66.968L28.5725 67.2202H27.2006C26.9837 66.7057 26.7777 66.2649 26.5851 65.8984C26.3925 65.5327 26.1889 65.1498 25.9736 64.7497H25.4082L25.0034 66.4998C24.9987 66.5201 24.994 66.5452 24.9901 66.5734C24.9861 66.6016 24.9846 66.6219 24.9846 66.6345C24.9846 66.6932 24.9955 66.7441 25.0175 66.7872C25.0394 66.8302 25.0778 66.8655 25.1341 66.8905C25.1694 66.9062 25.2461 66.9218 25.362 66.9383C25.4779 66.9547 25.5742 66.9649 25.6509 66.9672L25.5899 67.2194H23.294L23.3551 66.9672C23.4193 66.9618 23.5093 66.9532 23.6268 66.9406C23.7442 66.9281 23.828 66.9117 23.8789 66.8913C23.9705 66.8553 24.041 66.8044 24.0896 66.737C24.1381 66.6689 24.171 66.5906 24.189 66.5013L25.1044 62.5399C25.1091 62.5149 25.1138 62.4883 25.1177 62.4616C25.1216 62.4342 25.1232 62.4084 25.1232 62.3825C25.1232 62.3293 25.113 62.2815 25.0926 62.2408C25.0723 62.2001 25.0339 62.168 24.9783 62.1453C24.9251 62.1249 24.8468 62.1046 24.745 62.0842C24.6432 62.0639 24.5586 62.0513 24.4928 62.0458L24.55 61.7937H26.9907C27.21 61.7937 27.4104 61.8148 27.5913 61.8587C27.7722 61.9025 27.9241 61.9621 28.0463 62.038C28.1817 62.1194 28.2882 62.2267 28.3657 62.3591C28.4433 62.4914 28.4824 62.648 28.4824 62.8297C28.4824 63.0693 28.4378 63.2877 28.3485 63.4858C28.2593 63.6832 28.1379 63.8523 27.9852 63.9917C27.8247 64.1373 27.6422 64.2579 27.4378 64.3527C27.2343 64.449 27.0095 64.525 26.7644 64.5805C26.9633 64.965 27.1254 65.2704 27.2507 65.4944C27.376 65.7183 27.5224 65.9955 27.6908 66.3244C27.7769 66.4904 27.8552 66.6086 27.9241 66.6822C27.993 66.7543 28.0658 66.8122 28.1418 66.8561C28.206 66.8921 28.289 66.9187 28.3908 66.9367C28.4903 66.9555 28.5725 66.9657 28.6335 66.968ZM27.5396 62.9119C27.5396 62.6519 27.4598 62.4491 27.3 62.3043C27.1403 62.1594 26.9163 62.0866 26.6282 62.0866H26.0198L25.4826 64.4419H26.0252C26.4434 64.4419 26.7997 64.2955 27.0957 64.0034C27.3916 63.7114 27.5396 63.3472 27.5396 62.9119Z" fill="#D9EBFF"/>
<path d="M31.5472 66.7151H31.5206C31.4642 66.7613 31.3976 66.8193 31.3201 66.8897C31.2426 66.9602 31.1518 67.0268 31.0468 67.091C30.9482 67.1544 30.8393 67.21 30.7227 67.257C30.6052 67.3047 30.4776 67.3282 30.3405 67.3282C29.9709 67.3282 29.682 67.1959 29.4721 66.9304C29.2623 66.6642 29.1574 66.3025 29.1574 65.8428C29.1574 65.5265 29.2161 65.2187 29.3335 64.9204C29.4502 64.622 29.6123 64.3535 29.819 64.117C30.0148 63.8899 30.2481 63.7075 30.5183 63.5681C30.7884 63.4287 31.0656 63.359 31.3507 63.359C31.5315 63.359 31.7038 63.3833 31.8682 63.4318C32.0327 63.4812 32.1619 63.5352 32.2559 63.5963L32.9575 63.4169L33.0037 63.4741L32.4211 65.943C32.4007 66.0221 32.3796 66.1184 32.3577 66.232C32.3357 66.3455 32.3248 66.4285 32.3248 66.4818C32.3248 66.6282 32.3553 66.7261 32.4164 66.777C32.4775 66.8279 32.5808 66.8537 32.7265 66.8537C32.775 66.8537 32.8439 66.8459 32.9332 66.831C33.0225 66.8161 33.0914 66.7989 33.1399 66.7817L33.0827 67.0268C32.8525 67.1184 32.6818 67.1849 32.5691 67.2257C32.4563 67.2664 32.3201 67.2867 32.1595 67.2867C31.9755 67.2867 31.8299 67.2335 31.7226 67.1262C31.6161 67.0182 31.5574 66.8811 31.5472 66.7151ZM32.0985 64.2963C32.0985 64.2125 32.0891 64.1319 32.0718 64.0551C32.0538 63.9784 32.017 63.9071 31.9607 63.8406C31.9098 63.7771 31.8401 63.7263 31.75 63.6879C31.6607 63.6495 31.5488 63.6307 31.4133 63.6307C31.2269 63.6307 31.0461 63.6918 30.8699 63.814C30.6937 63.9361 30.5355 64.1013 30.3961 64.308C30.2638 64.5022 30.155 64.7372 30.0704 65.012C29.9866 65.2884 29.9443 65.5672 29.9443 65.8499C29.9443 66.0057 29.9529 66.1435 29.9709 66.2633C29.9882 66.3831 30.0226 66.4927 30.0735 66.593C30.1221 66.6893 30.1918 66.7652 30.2834 66.8185C30.375 66.8717 30.4909 66.8991 30.631 66.8991C30.7736 66.8991 30.9231 66.8592 31.0789 66.7785C31.2356 66.6979 31.4117 66.5577 31.6075 66.3557L32.0985 64.2963Z" fill="#D9EBFF"/>
<path d="M35.4812 66.8036L35.424 67.0487C35.1899 67.1426 35.0019 67.2084 34.8618 67.2452C34.7216 67.2828 34.6018 67.3008 34.5024 67.3008C34.2988 67.3008 34.1453 67.2483 34.0435 67.1418C33.9417 67.0361 33.8908 66.9054 33.8908 66.7495C33.8908 66.6916 33.8955 66.6297 33.9065 66.5663C33.9174 66.5029 33.9331 66.4214 33.9558 66.3251L34.3599 64.698C34.3802 64.6095 34.3998 64.5132 34.4186 64.4114C34.4374 64.3088 34.4476 64.2227 34.4476 64.1506C34.4476 64.0081 34.4241 63.9126 34.3771 63.8664C34.3301 63.8186 34.2338 63.7951 34.0889 63.7951C34.0325 63.7951 33.9581 63.8045 33.8658 63.8217C33.7734 63.839 33.7021 63.8546 33.6535 63.8679L33.7107 63.6228C33.9096 63.5336 34.0874 63.4678 34.2455 63.424C34.4037 63.3801 34.5282 63.359 34.6206 63.359C34.8297 63.359 34.9808 63.4083 35.0755 63.5077C35.1703 63.6072 35.2173 63.7419 35.2173 63.9102C35.2173 63.9564 35.2126 64.0191 35.2016 64.0974C35.1914 64.1772 35.1766 64.2555 35.1554 64.3346L34.749 65.9618C34.7232 66.0612 34.7013 66.1583 34.6825 66.2547C34.6637 66.3502 34.6535 66.4285 34.6535 66.4896C34.6535 66.636 34.6864 66.7347 34.7506 66.7887C34.8156 66.8419 34.9205 66.8693 35.0654 66.8693C35.1139 66.8693 35.1828 66.8631 35.2729 66.8506C35.3629 66.838 35.4326 66.8216 35.4812 66.8036ZM35.7521 61.9135C35.7521 62.0591 35.7051 62.186 35.6104 62.294C35.5156 62.4021 35.3989 62.4561 35.2588 62.4561C35.1288 62.4561 35.0168 62.4044 34.9221 62.3019C34.8273 62.1977 34.7803 62.0803 34.7803 61.9479C34.7803 61.8078 34.8273 61.6856 34.9221 61.5807C35.0168 61.4758 35.1288 61.4241 35.2588 61.4241C35.4044 61.4241 35.5227 61.4734 35.6143 61.5713C35.7067 61.6699 35.7521 61.7835 35.7521 61.9135Z" fill="#D9EBFF"/>
<path d="M40.0957 66.777L40.0386 67.0221C39.8084 67.1137 39.629 67.181 39.5006 67.2225C39.373 67.2656 39.2438 67.286 39.113 67.286C38.9086 67.286 38.7544 67.2335 38.6526 67.127C38.55 67.0213 38.4991 66.8905 38.4991 66.7347C38.4991 66.6791 38.5046 66.6172 38.5148 66.5491C38.525 66.4818 38.5422 66.4019 38.5649 66.3103L38.9423 64.8828C38.9705 64.7724 38.9932 64.6729 39.0097 64.5837C39.0261 64.4944 39.0347 64.4232 39.0347 64.3699C39.0347 64.1984 38.994 64.063 38.9133 63.9635C38.8327 63.8641 38.7121 63.8147 38.5531 63.8147C38.3989 63.8147 38.2258 63.8656 38.0332 63.9674C37.8406 64.07 37.6605 64.218 37.4913 64.4114L36.8383 67.221H36.1241L36.6973 64.7403C36.7099 64.6792 36.7287 64.5907 36.7529 64.4741C36.7772 64.3589 36.789 64.2642 36.789 64.1937C36.789 64.0504 36.7647 63.9549 36.7161 63.9063C36.6676 63.8578 36.5705 63.8335 36.4241 63.8335C36.3677 63.8335 36.2956 63.8429 36.2087 63.8625C36.1218 63.8805 36.0537 63.897 36.0051 63.9103L36.0631 63.6652C36.2627 63.5759 36.4397 63.5101 36.5932 63.4663C36.7467 63.4224 36.879 63.4013 36.9894 63.4013C37.1914 63.4013 37.3363 63.4561 37.4232 63.5657C37.5101 63.6761 37.5563 63.8273 37.5618 64.0215H37.5845C37.8641 63.7967 38.1052 63.6307 38.3081 63.5219C38.5109 63.413 38.7426 63.359 39.0018 63.359C39.2453 63.359 39.4356 63.4303 39.5727 63.5712C39.7097 63.7122 39.7786 63.8985 39.7786 64.128C39.7786 64.1742 39.7716 64.2556 39.7575 64.373C39.7434 64.4905 39.7214 64.6072 39.6909 64.7215L39.3691 65.9501C39.3464 66.0315 39.3237 66.1255 39.3025 66.2312C39.2806 66.3369 39.2696 66.4191 39.2696 66.4771C39.2696 66.6235 39.3017 66.7222 39.3652 66.7738C39.4286 66.8263 39.5335 66.8529 39.6784 66.8529C39.7269 66.8529 39.7966 66.8443 39.8874 66.8287C39.9775 66.8122 40.0472 66.795 40.0957 66.777Z" fill="#D9EBFF"/>
<path d="M44.3898 64.8209C44.3898 65.1608 44.3288 65.485 44.2066 65.795C44.0844 66.1051 43.9224 66.3713 43.7211 66.5961C43.5144 66.8255 43.281 67.0056 43.0211 67.1372C42.7611 67.2687 42.4855 67.3345 42.195 67.3345C41.9757 67.3345 41.7831 67.3165 41.6155 67.2797C41.4487 67.2421 41.3062 67.192 41.1895 67.1286C41.0697 67.062 40.9703 66.9876 40.8912 66.9046C40.8121 66.8224 40.7409 66.7292 40.6774 66.6274L41.6633 62.2972C41.6758 62.2385 41.6868 62.1876 41.6954 62.1461C41.7048 62.1038 41.7095 62.0615 41.7095 62.0176C41.7095 61.926 41.6938 61.8556 41.6633 61.8054C41.6327 61.7553 41.5889 61.7177 41.5333 61.6919C41.48 61.6692 41.4127 61.6535 41.3313 61.6457C41.2498 61.6379 41.1676 61.6293 41.083 61.6191L41.1363 61.3857L42.5481 61.3019L42.5857 61.3591L42.0078 63.8977H42.0235C42.2529 63.6933 42.4557 63.5532 42.6303 63.4749C42.805 63.3974 42.9757 63.359 43.1417 63.359C43.53 63.359 43.8347 63.4913 44.057 63.7552C44.2794 64.0191 44.3898 64.3746 44.3898 64.8209ZM43.6021 64.8397C43.6021 64.7043 43.5896 64.568 43.5661 64.4318C43.5418 64.2947 43.5011 64.1812 43.4455 64.0888C43.3868 63.9925 43.3061 63.9157 43.2043 63.8594C43.1017 63.8038 42.9757 63.7756 42.8245 63.7756C42.7353 63.7756 42.6507 63.7912 42.5716 63.8218C42.4925 63.8523 42.4103 63.8938 42.3265 63.9439C42.2529 63.9901 42.1801 64.0457 42.1104 64.1107C42.0407 64.1757 41.9757 64.2337 41.917 64.2853L41.4088 66.5546C41.4166 66.6055 41.4393 66.6619 41.4777 66.7237C41.5161 66.7848 41.5646 66.8381 41.6233 66.8842C41.6946 66.9422 41.7753 66.9876 41.8645 67.0181C41.9538 67.0487 42.0525 67.0643 42.1589 67.0643C42.361 67.0643 42.5505 67.0048 42.7282 66.8858C42.906 66.7668 43.0579 66.6078 43.1855 66.4058C43.3257 66.1866 43.4306 65.9415 43.4995 65.6713C43.5676 65.3996 43.6021 65.1232 43.6021 64.8397Z" fill="#D9EBFF"/>
<path d="M48.6065 64.8632C48.6065 65.1647 48.5556 65.4654 48.4538 65.7661C48.352 66.0668 48.204 66.3314 48.0106 66.5585C47.8148 66.7934 47.5776 66.9813 47.3011 67.1231C47.0247 67.2648 46.7037 67.3353 46.3396 67.3353C45.9159 67.3353 45.573 67.199 45.3091 66.9265C45.0452 66.654 44.9137 66.286 44.9137 65.824C44.9137 65.4842 44.97 65.1686 45.082 64.875C45.194 64.5813 45.3443 64.3237 45.533 64.1021C45.7241 63.8805 45.9606 63.7004 46.2425 63.5642C46.5244 63.4271 46.8297 63.359 47.1578 63.359C47.612 63.359 47.9667 63.4976 48.2228 63.774C48.4788 64.0504 48.6065 64.4138 48.6065 64.8632ZM47.8266 64.7176C47.8266 64.355 47.7624 64.0825 47.6332 63.9017C47.5039 63.7216 47.3192 63.6299 47.0772 63.6299C46.8658 63.6299 46.6661 63.6949 46.4789 63.8249C46.2918 63.9549 46.1305 64.1671 45.995 64.4607C45.8909 64.6831 45.8141 64.9298 45.7656 65.2015C45.717 65.4732 45.6928 65.7238 45.6928 65.9532C45.6928 66.3189 45.7562 66.5945 45.8823 66.7825C46.0083 66.9704 46.1986 67.0636 46.4539 67.0636C46.681 67.0636 46.8822 66.9923 47.0576 66.8498C47.233 66.7073 47.3763 66.5256 47.4859 66.3064C47.5956 66.0926 47.6801 65.8459 47.7381 65.5695C47.796 65.2931 47.8266 65.0081 47.8266 64.7176Z" fill="#D9EBFF"/>
<path d="M55.0612 64.0668C55.0612 64.4677 55.004 64.8648 54.8889 65.2571C54.7746 65.6501 54.6172 65.9955 54.4183 66.2946C54.1967 66.6258 53.9454 66.8826 53.665 67.0635C53.3847 67.2436 53.0801 67.3352 52.7512 67.3352C52.5116 67.3352 52.2908 67.2687 52.088 67.1364C51.8852 67.0032 51.7497 66.8216 51.6808 66.589C51.5892 66.6783 51.5038 66.7613 51.4263 66.8372C51.3488 66.9147 51.247 66.9931 51.1225 67.0753C50.9972 67.1567 50.8837 67.2194 50.7803 67.2624C50.6769 67.3055 50.5454 67.3274 50.3849 67.3274C50.1907 67.3274 50.0309 67.2977 49.9049 67.2374C49.7788 67.1778 49.677 67.0988 49.601 67.0025C49.5298 66.9101 49.4789 66.8067 49.4484 66.6908C49.4178 66.5749 49.4022 66.452 49.4022 66.3251C49.4022 66.2758 49.4076 66.2147 49.4194 66.1411C49.4311 66.0675 49.4429 66.0033 49.4554 65.95L49.7804 64.7402C49.8109 64.6259 49.8328 64.521 49.8469 64.427C49.861 64.3323 49.8681 64.2548 49.8681 64.1937C49.8681 64.0504 49.8446 63.9549 49.7976 63.9087C49.7506 63.8609 49.6543 63.8374 49.5087 63.8374C49.4523 63.8374 49.381 63.8484 49.2949 63.8695C49.2087 63.8906 49.1406 63.9087 49.0921 63.9212L49.1492 63.6753C49.3473 63.5853 49.522 63.5171 49.6731 63.4709C49.8242 63.424 49.9464 63.4012 50.0372 63.4012C50.2408 63.4012 50.3904 63.4498 50.4851 63.5453C50.5798 63.6409 50.6284 63.7771 50.6284 63.9533C50.6284 63.9995 50.6237 64.0621 50.6127 64.1404C50.6026 64.2203 50.5877 64.2986 50.5673 64.3777L50.2142 65.7903C50.1915 65.8851 50.1727 65.9821 50.157 66.0816C50.1413 66.181 50.1343 66.2554 50.1343 66.3032C50.1343 66.4943 50.1727 66.6399 50.2486 66.7378C50.3254 66.8364 50.4538 66.885 50.6347 66.885C50.796 66.885 50.9635 66.8404 51.1397 66.7527C51.3159 66.665 51.4764 66.5365 51.6221 66.3682L52.2986 63.4631L52.9642 63.4169L53.0104 63.4741L52.4709 65.8052C52.4529 65.8827 52.4349 65.9759 52.4153 66.0863C52.3957 66.1967 52.3863 66.2664 52.3863 66.2954C52.3863 66.4363 52.4082 66.5467 52.4529 66.6289C52.4975 66.7104 52.5539 66.7707 52.6228 66.8083C52.6886 66.8466 52.7575 66.8701 52.8295 66.8787C52.9008 66.8881 52.9697 66.8928 53.0362 66.8928C53.2093 66.8928 53.387 66.838 53.5695 66.7284C53.7512 66.618 53.9109 66.4755 54.0456 66.2993C54.1959 66.1027 54.3142 65.8858 54.4011 65.647C54.488 65.4082 54.5311 65.1513 54.5311 64.8757C54.5311 64.723 54.5099 64.6048 54.4676 64.5218C54.4254 64.4396 54.3792 64.3667 54.3283 64.3057C54.2774 64.2422 54.2304 64.1749 54.1889 64.1052C54.1466 64.0347 54.1255 63.9353 54.1255 63.8084C54.1255 63.662 54.174 63.5516 54.2711 63.4749C54.3682 63.3981 54.47 63.3605 54.5773 63.3605C54.7276 63.3605 54.8459 63.4208 54.9312 63.5422C55.0181 63.662 55.0612 63.8374 55.0612 64.0668Z" fill="#D9EBFF"/>
<path d="M61.1398 64.8632C61.1398 65.1647 61.0889 65.4654 60.9871 65.7661C60.8853 66.0668 60.7373 66.3314 60.5439 66.5585C60.3482 66.7934 60.1109 66.9813 59.8345 67.1231C59.5581 67.2648 59.237 67.3353 58.8729 67.3353C58.4493 67.3353 58.1063 67.199 57.8424 66.9265C57.5785 66.654 57.447 66.286 57.447 65.824C57.447 65.4842 57.5034 65.1686 57.6153 64.875C57.7273 64.5813 57.8777 64.3237 58.0664 64.1021C58.2574 63.8805 58.4939 63.7004 58.7758 63.5642C59.0577 63.4271 59.3631 63.359 59.6912 63.359C60.1453 63.359 60.5001 63.4976 60.7561 63.774C61.0122 64.0504 61.1398 64.4138 61.1398 64.8632ZM60.3599 64.7176C60.3599 64.355 60.2957 64.0825 60.1665 63.9017C60.0373 63.7216 59.8525 63.6299 59.6105 63.6299C59.3991 63.6299 59.1994 63.6949 59.0123 63.8249C58.8251 63.9549 58.6638 64.1671 58.5284 64.4607C58.4242 64.6831 58.3475 64.9298 58.2989 65.2015C58.2504 65.4732 58.2261 65.7238 58.2261 65.9532C58.2261 66.3189 58.2895 66.5945 58.4156 66.7825C58.5417 66.9704 58.732 67.0636 58.9872 67.0636C59.2143 67.0636 59.4155 66.9923 59.5909 66.8498C59.7664 66.7073 59.9096 66.5256 60.0193 66.3064C60.1289 66.0926 60.2135 65.8459 60.2714 65.5695C60.3294 65.2931 60.3599 65.0081 60.3599 64.7176Z" fill="#D9EBFF"/>
<path d="M63.2869 63.8328L62.6127 66.9908C62.4937 67.5569 62.2408 68.0189 61.8571 68.3783C61.4734 68.7377 61.0764 68.9171 60.6692 68.9171C60.4452 68.9171 60.28 68.874 60.1751 68.7886C60.0694 68.7041 60.0161 68.596 60.0161 68.466C60.0161 68.3564 60.049 68.2593 60.1156 68.1755C60.1821 68.0917 60.2777 68.0494 60.4022 68.0494C60.4813 68.0494 60.551 68.0667 60.6105 68.1027C60.6708 68.1387 60.7232 68.1833 60.7694 68.2366C60.8055 68.2804 60.8454 68.3384 60.89 68.4128C60.9347 68.4872 60.9738 68.5506 61.0067 68.6038C61.2032 68.5882 61.3708 68.4566 61.5094 68.2061C61.6488 67.9563 61.7694 67.6 61.8704 67.1356L62.5751 63.832H61.8281L61.9088 63.4843H62.6448L62.6996 63.2251C62.7607 62.9299 62.8578 62.6637 62.9901 62.4264C63.1233 62.19 63.2728 61.9887 63.4412 61.8235C63.6072 61.6606 63.7951 61.533 64.0057 61.4398C64.2164 61.3474 64.4176 61.3004 64.611 61.3004C64.8358 61.3004 65.001 61.3435 65.1067 61.4288C65.2124 61.5134 65.2657 61.6215 65.2657 61.7514C65.2657 61.8611 65.2336 61.9582 65.1709 62.042C65.1083 62.1257 65.0104 62.168 64.8773 62.168C64.7982 62.168 64.7293 62.1508 64.6705 62.1171C64.611 62.0819 64.5586 62.0365 64.5132 61.9809C64.4623 61.9175 64.4215 61.8572 64.391 61.8016C64.3605 61.746 64.3213 61.6833 64.2759 61.6144C64.0989 61.6222 63.9431 61.7374 63.8068 61.9613C63.6722 62.1853 63.55 62.558 63.4419 63.0795L63.3566 63.4843H64.3205L64.2407 63.832H63.2869V63.8328Z" fill="#D9EBFF"/>
<path d="M71.9646 61.7952L71.9066 62.0474C71.8941 62.0474 71.8456 62.0521 71.761 62.0607C71.6772 62.0701 71.5942 62.0834 71.5136 62.1014C71.411 62.1241 71.3123 62.1554 71.2168 62.1954C71.1213 62.2345 71.032 62.2909 70.9474 62.3653C70.6131 62.6636 70.2537 62.9839 69.8692 63.3276C69.4839 63.6706 69.1229 63.9776 68.7862 64.2508C69.0133 64.6048 69.2318 64.9556 69.4424 65.3025C69.6531 65.6494 69.8559 65.9908 70.0524 66.3275C70.1237 66.4496 70.2028 66.5585 70.2912 66.6524C70.3797 66.7464 70.4643 66.8169 70.5449 66.8631C70.6013 66.896 70.6804 66.9218 70.7822 66.9398C70.8848 66.957 70.967 66.968 71.0312 66.9704L70.9654 67.2225H69.5842C69.3806 66.7816 69.1558 66.347 68.9115 65.9187C68.6672 65.4904 68.3994 65.066 68.1089 64.6455H67.899L67.4754 66.477C67.4699 66.4974 67.466 66.5185 67.4629 66.5405C67.4613 66.5616 67.4598 66.5843 67.4598 66.607C67.4598 66.6681 67.4692 66.7182 67.4856 66.7558C67.5036 66.7942 67.5451 66.8302 67.6078 66.8631C67.6414 66.8803 67.715 66.903 67.8278 66.9281C67.9405 66.9531 68.0275 66.968 68.0862 66.9704L68.0283 67.2225H65.777L65.8334 66.9704C65.8976 66.9649 65.9853 66.957 66.098 66.9476C66.21 66.9375 66.2915 66.9226 66.3431 66.9014C66.4348 66.8654 66.5037 66.8161 66.5514 66.7503C66.5992 66.6861 66.6313 66.6086 66.6493 66.5193L67.5623 62.5657C67.5678 62.543 67.5717 62.5195 67.5749 62.4968C67.5772 62.4741 67.578 62.4506 67.578 62.4279C67.578 62.3723 67.567 62.323 67.5443 62.2823C67.5216 62.2416 67.484 62.2079 67.4324 62.1828C67.3862 62.1578 67.318 62.1312 67.2241 62.1045C67.1309 62.0771 67.0463 62.0583 66.9704 62.0489L67.0267 61.7968H69.278L69.2216 62.0489C69.1496 62.0513 69.0579 62.063 68.946 62.0834C68.8332 62.1037 68.7494 62.1233 68.6938 62.1406C68.5991 62.1711 68.5286 62.222 68.4824 62.2956C68.4362 62.3676 68.4033 62.4444 68.383 62.5266L67.9413 64.4576H68.0149C68.3791 64.2 68.7385 63.9188 69.0932 63.6127C69.4471 63.3065 69.7361 63.0395 69.96 62.8101C70.0978 62.6699 70.2035 62.5516 70.2764 62.4569C70.3484 62.3606 70.3852 62.2823 70.3852 62.2212C70.3852 62.175 70.3406 62.1374 70.2536 62.1069C70.1652 62.0763 70.0367 62.0575 69.8684 62.0497L69.9263 61.7976H71.9646V61.7952Z" fill="#D9EBFF"/>
<path d="M75.6887 66.777L75.6308 67.0221C75.4006 67.1137 75.2221 67.181 75.0936 67.2225C74.9652 67.2656 74.8368 67.286 74.706 67.286C74.5017 67.286 74.3474 67.2335 74.2456 67.127C74.143 67.0213 74.0921 66.8905 74.0921 66.7347C74.0921 66.6791 74.0976 66.6172 74.1078 66.5491C74.1188 66.4818 74.1352 66.4019 74.1579 66.3103L74.5353 64.8828C74.5627 64.7724 74.5854 64.6729 74.6027 64.5837C74.6191 64.4944 74.627 64.4232 74.627 64.3699C74.627 64.1984 74.5862 64.063 74.5056 63.9635C74.4249 63.8641 74.3043 63.8147 74.1454 63.8147C73.9911 63.8147 73.8181 63.8656 73.6254 63.9674C73.4328 64.07 73.2519 64.218 73.0836 64.4114L72.4297 67.221H71.7156L72.2888 64.7403C72.3021 64.6792 72.3201 64.5907 72.3444 64.4741C72.3679 64.3589 72.3804 64.2642 72.3804 64.1937C72.3804 64.0504 72.3561 63.9549 72.3076 63.9063C72.259 63.8578 72.1612 63.8335 72.0163 63.8335C71.9599 63.8335 71.8879 63.8429 71.801 63.8625C71.714 63.8805 71.6459 63.897 71.5974 63.9103L71.6545 63.6652C71.8542 63.5759 72.0312 63.5101 72.1846 63.4663C72.3389 63.4224 72.4705 63.4013 72.5809 63.4013C72.7837 63.4013 72.9277 63.4561 73.0154 63.5657C73.1024 63.6761 73.1486 63.8273 73.154 64.0215H73.1768C73.4555 63.7967 73.6975 63.6307 73.9011 63.5219C74.1039 63.413 74.3357 63.359 74.5941 63.359C74.8384 63.359 75.0286 63.4303 75.1657 63.5712C75.3027 63.7129 75.3708 63.8985 75.3708 64.128C75.3708 64.1742 75.3646 64.2556 75.3505 64.373C75.3356 64.4905 75.3145 64.6072 75.2839 64.7215L74.9621 65.9501C74.9394 66.0315 74.9167 66.1255 74.8955 66.2312C74.8736 66.3369 74.8626 66.4191 74.8626 66.4771C74.8626 66.6235 74.894 66.7222 74.9582 66.7738C75.0216 66.8263 75.1265 66.8529 75.2714 66.8529C75.3207 66.8529 75.3888 66.8443 75.4805 66.8287C75.5705 66.8122 75.6394 66.795 75.6887 66.777Z" fill="#D9EBFF"/>
<path d="M79.8639 64.8632C79.8639 65.1647 79.813 65.4654 79.7112 65.7661C79.6086 66.0675 79.4614 66.3314 79.268 66.5585C79.0714 66.7934 78.835 66.9813 78.5585 67.1231C78.2821 67.2648 77.9611 67.3353 77.5962 67.3353C77.1733 67.3353 76.8296 67.199 76.5665 66.9265C76.3034 66.654 76.1711 66.286 76.1711 65.824C76.1711 65.4842 76.2266 65.1686 76.3394 64.875C76.4514 64.5813 76.6017 64.3237 76.7904 64.1021C76.9815 63.8805 77.2172 63.7004 77.4991 63.5642C77.781 63.4271 78.0856 63.359 78.4145 63.359C78.8686 63.359 79.2233 63.4976 79.4794 63.774C79.7354 64.0504 79.8639 64.4138 79.8639 64.8632ZM79.084 64.7176C79.084 64.355 79.0197 64.0825 78.8905 63.9017C78.7613 63.7216 78.5766 63.6299 78.3346 63.6299C78.1224 63.6299 77.9235 63.6949 77.7356 63.8249C77.5476 63.9549 77.3871 64.1671 77.2516 64.4607C77.1475 64.6831 77.0715 64.9298 77.0222 65.2015C76.9737 65.4732 76.9502 65.7238 76.9502 65.9532C76.9502 66.3189 77.0128 66.5945 77.1389 66.7825C77.265 66.9704 77.4552 67.0636 77.7097 67.0636C77.9368 67.0636 78.138 66.9923 78.3134 66.8498C78.4888 66.7073 78.6321 66.5256 78.7418 66.3064C78.8522 66.0926 78.936 65.8459 78.9939 65.5695C79.0542 65.2923 79.084 65.0081 79.084 64.7176Z" fill="#D9EBFF"/>
<path d="M86.3177 64.0668C86.3177 64.4677 86.2598 64.8648 86.1447 65.2571C86.0303 65.6501 85.8737 65.9955 85.6748 66.2946C85.4532 66.6258 85.2019 66.8826 84.9208 67.0635C84.6412 67.2436 84.3366 67.3352 84.0077 67.3352C83.7673 67.3352 83.5465 67.2687 83.3437 67.1364C83.1409 67.0032 83.0054 66.8216 82.9365 66.589C82.8449 66.6783 82.7588 66.7613 82.682 66.8372C82.6045 66.9147 82.5027 66.9931 82.3782 67.0753C82.2529 67.1567 82.1386 67.2194 82.0353 67.2624C81.9319 67.3055 81.7995 67.3274 81.639 67.3274C81.4456 67.3274 81.2859 67.2977 81.1598 67.2374C81.0337 67.1778 80.9327 67.0988 80.856 67.0025C80.7839 66.9101 80.7338 66.8067 80.7033 66.6908C80.6728 66.5749 80.6571 66.452 80.6571 66.3251C80.6571 66.2758 80.6626 66.2147 80.6735 66.1411C80.6853 66.0675 80.697 66.0033 80.7103 65.95L81.0345 64.7402C81.0651 64.6259 81.0878 64.521 81.1019 64.427C81.116 64.3323 81.123 64.2548 81.123 64.1937C81.123 64.0504 81.0987 63.9549 81.0517 63.9087C81.0048 63.8609 80.9085 63.8374 80.7636 63.8374C80.7072 63.8374 80.636 63.8484 80.5498 63.8695C80.4629 63.8906 80.3956 63.9087 80.3462 63.9212L80.4042 63.6753C80.6015 63.5853 80.7769 63.5171 80.928 63.4709C81.0792 63.424 81.2013 63.4012 81.2929 63.4012C81.4965 63.4012 81.6453 63.4498 81.7408 63.5453C81.8356 63.6409 81.8833 63.7771 81.8833 63.9533C81.8833 63.9995 81.8786 64.0621 81.8677 64.1404C81.8583 64.2203 81.8434 64.2986 81.8223 64.3777L81.4691 65.7903C81.4464 65.8851 81.4268 65.9821 81.4119 66.0816C81.3971 66.181 81.3892 66.2554 81.3892 66.3032C81.3892 66.4943 81.4276 66.6399 81.5036 66.7378C81.5803 66.8364 81.7095 66.885 81.8904 66.885C82.0509 66.885 82.2193 66.8404 82.3954 66.7527C82.5716 66.665 82.7322 66.5365 82.877 66.3682L83.5543 63.4631L84.2199 63.4169L84.2661 63.4741L83.7266 65.8052C83.7094 65.8827 83.6906 65.9759 83.6718 66.0863C83.653 66.1967 83.6428 66.2664 83.6428 66.2954C83.6428 66.4363 83.6655 66.5467 83.7102 66.6289C83.7548 66.7104 83.8112 66.7707 83.8801 66.8083C83.9466 66.8466 84.0156 66.8701 84.0868 66.8787C84.1589 66.8881 84.2278 66.8928 84.2935 66.8928C84.4674 66.8928 84.6451 66.838 84.8276 66.7284C85.0092 66.618 85.169 66.4755 85.3029 66.2993C85.4532 66.1027 85.5722 65.8858 85.6592 65.647C85.7453 65.4082 85.7891 65.1513 85.7891 64.8757C85.7891 64.723 85.768 64.6048 85.7257 64.5218C85.6834 64.4396 85.6372 64.3667 85.5856 64.3057C85.5354 64.2422 85.4885 64.1749 85.4462 64.1052C85.4039 64.0347 85.3835 63.9353 85.3835 63.8084C85.3835 63.662 85.4321 63.5516 85.5292 63.4749C85.6255 63.3981 85.7281 63.3605 85.8353 63.3605C85.9849 63.3605 86.1032 63.4208 86.1885 63.5422C86.2746 63.662 86.3177 63.8374 86.3177 64.0668Z" fill="#D9EBFF"/>
<path d="M88.8563 61.3591L87.7875 65.9626C87.7647 66.0597 87.742 66.156 87.7217 66.2531C87.7021 66.3502 87.6911 66.4293 87.6911 66.4904C87.6911 66.636 87.724 66.7355 87.789 66.7887C87.8532 66.842 87.9589 66.8694 88.1038 66.8694C88.1539 66.8694 88.2299 66.8631 88.3301 66.8506C88.4311 66.8373 88.5071 66.8224 88.558 66.8044L88.5 67.0495C88.2706 67.1411 88.0944 67.2061 87.9707 67.2444C87.847 67.2828 87.7076 67.3016 87.5518 67.3016C87.3482 67.3016 87.1939 67.2491 87.0874 67.1426C86.9809 67.0369 86.9292 66.9062 86.9292 66.7511C86.9292 66.6924 86.9347 66.6313 86.9457 66.5671C86.9574 66.5037 86.9731 66.423 86.9935 66.3259L87.9253 62.2972C87.9425 62.2173 87.955 62.1625 87.9613 62.132C87.9683 62.1014 87.9715 62.0631 87.9715 62.0176C87.9715 61.926 87.9558 61.8556 87.9253 61.8054C87.8947 61.7553 87.8509 61.7177 87.7945 61.6919C87.7413 61.6692 87.6731 61.6535 87.5909 61.6457C87.5087 61.6379 87.4257 61.6293 87.3419 61.6191L87.3952 61.3857L88.8172 61.3019L88.8563 61.3591Z" fill="#D9EBFF"/>
<path d="M92.3316 64.1553C92.3316 64.4262 92.2478 64.6588 92.0779 64.8522C91.9079 65.0464 91.6621 65.2007 91.3379 65.3158C91.1006 65.4027 90.8618 65.4732 90.6191 65.5272C90.3771 65.5804 90.1101 65.6251 89.8164 65.6611C89.8164 66.0644 89.8916 66.3713 90.0404 66.5851C90.1892 66.7973 90.4084 66.9038 90.6958 66.9038C90.9511 66.9038 91.1758 66.8404 91.3708 66.7127C91.5658 66.5851 91.7576 66.3956 91.9463 66.1427L92.1632 66.3032C91.9596 66.6141 91.7044 66.8631 91.3982 67.0486C91.092 67.2342 90.7757 67.3274 90.4468 67.3274C89.9958 67.3274 89.6497 67.2013 89.4124 66.9492C89.1743 66.6963 89.0553 66.3377 89.0553 65.8733C89.0553 65.5523 89.1054 65.2453 89.2057 64.9532C89.3059 64.6604 89.4531 64.3934 89.6465 64.1514C89.8352 63.9141 90.067 63.7223 90.3411 63.5774C90.6151 63.4326 90.9174 63.3597 91.2494 63.3597C91.6167 63.3597 91.8884 63.4349 92.0653 63.5837C92.2423 63.7325 92.3316 63.9235 92.3316 64.1553ZM91.6276 64.0613C91.6276 63.9619 91.6135 63.8836 91.5861 63.8264C91.5579 63.7693 91.5219 63.7262 91.4788 63.6988C91.4326 63.6683 91.3841 63.6495 91.3332 63.6416C91.2823 63.6338 91.229 63.6299 91.1758 63.6299C90.8696 63.6299 90.5885 63.7982 90.3293 64.1342C90.0701 64.4701 89.9065 64.8882 89.8376 65.3894C90.0169 65.3643 90.2174 65.3275 90.4413 65.2805C90.666 65.2328 90.8516 65.1717 90.9996 65.0957C91.2118 64.9861 91.3692 64.846 91.4726 64.6745C91.5767 64.5022 91.6276 64.2978 91.6276 64.0613Z" fill="#D9EBFF"/>
<path d="M95.1778 66.6962H95.1512C95.0956 66.7456 95.022 66.8082 94.9335 66.8857C94.845 66.9633 94.7518 67.0322 94.6555 67.0909C94.5333 67.1676 94.4198 67.2256 94.3172 67.2671C94.2139 67.3078 94.087 67.3282 93.9367 67.3282C93.5678 67.3282 93.2781 67.195 93.0683 66.928C92.8584 66.661 92.7535 66.2985 92.7535 65.8388C92.7535 65.5178 92.8099 65.2069 92.9242 64.9086C93.0385 64.6102 93.1928 64.3448 93.3893 64.1122C93.5804 63.8875 93.8106 63.7058 94.08 63.5672C94.3493 63.4286 94.6296 63.3581 94.9225 63.3581C95.0987 63.3581 95.2733 63.3808 95.4471 63.427C95.6202 63.4732 95.7635 63.5296 95.8755 63.5954L96.1738 62.2956C96.1895 62.2266 96.1996 62.1734 96.2067 62.135C96.213 62.0967 96.2169 62.0544 96.2169 62.0089C96.2169 61.9173 96.1981 61.8469 96.1613 61.7983C96.1237 61.7498 96.0728 61.7145 96.0062 61.691C95.9452 61.6683 95.8606 61.6527 95.7541 61.6448C95.6476 61.637 95.5505 61.6284 95.4636 61.6182L95.5168 61.3849L97.0665 61.3011L97.1048 61.3582L96.0438 65.9422C96.0242 66.026 96.0023 66.1223 95.9812 66.2311C95.96 66.3392 95.9491 66.4214 95.9491 66.477C95.9491 66.6226 95.9796 66.7213 96.0407 66.7738C96.1018 66.8254 96.2043 66.8521 96.35 66.8521C96.3993 66.8521 96.4674 66.8442 96.5567 66.8294C96.646 66.8137 96.7149 66.7972 96.7634 66.78L96.7071 67.0251C96.4925 67.1222 96.3148 67.1896 96.1738 67.2279C96.0336 67.2663 95.9029 67.2851 95.7831 67.2851C95.5998 67.2851 95.4526 67.2365 95.3438 67.141C95.2318 67.0463 95.1778 66.8975 95.1778 66.6962ZM95.722 64.2578C95.7157 64.1835 95.6977 64.1114 95.664 64.0417C95.6312 63.9713 95.5889 63.9086 95.538 63.8522C95.4792 63.7888 95.4033 63.7363 95.3109 63.6941C95.2177 63.6518 95.1065 63.6306 94.9789 63.6306C94.7831 63.6306 94.5968 63.6917 94.4221 63.8139C94.2475 63.936 94.0933 64.0997 93.9609 64.304C93.8333 64.5006 93.7307 64.7379 93.654 65.0143C93.5772 65.2907 93.5397 65.5687 93.5397 65.8466C93.5397 66.0025 93.549 66.1403 93.5671 66.2601C93.5843 66.3799 93.6187 66.4911 93.6696 66.5937C93.719 66.6876 93.7871 66.7628 93.8764 66.8168C93.9656 66.8716 94.0847 66.899 94.2326 66.899C94.372 66.899 94.5247 66.8568 94.6884 66.773C94.8536 66.6892 95.0361 66.542 95.2373 66.3321L95.722 64.2578Z" fill="#D9EBFF"/>
<path d="M99.6999 66.7034L99.6725 66.6955C99.6224 66.737 99.5503 66.7942 99.4572 66.8678C99.364 66.9422 99.2661 67.0072 99.1651 67.0636C99.0476 67.1325 98.9286 67.1881 98.8088 67.2319C98.6898 67.2758 98.5567 67.2969 98.411 67.2969C98.0414 67.2969 97.7564 67.1661 97.5567 66.9046C97.357 66.6431 97.256 66.2829 97.256 65.8232C97.256 65.5069 97.314 65.1991 97.4306 64.9008C97.5473 64.6025 97.7055 64.337 97.906 64.1045C98.1001 63.8797 98.3319 63.6988 98.6021 63.5634C98.873 63.4263 99.1557 63.3582 99.4509 63.3582C99.6341 63.3582 99.8087 63.3817 99.9708 63.4295C100.134 63.4765 100.266 63.532 100.365 63.5955L101.065 63.4162L101.111 63.4733L100.47 66.4888C100.373 66.9453 100.249 67.3306 100.097 67.6461C99.945 67.9609 99.7696 68.2107 99.5707 68.3947C99.3663 68.5827 99.1416 68.7174 98.8957 68.798C98.6506 68.8787 98.3719 68.9186 98.0602 68.9186C97.8488 68.9186 97.6765 68.9021 97.5426 68.8693C97.4087 68.8364 97.303 68.7925 97.2271 68.7393C97.1511 68.686 97.0994 68.625 97.0728 68.5584C97.0462 68.4903 97.0329 68.4261 97.0329 68.365C97.0329 68.2507 97.0665 68.1536 97.1354 68.0768C97.2044 67.9985 97.2991 67.9601 97.4181 67.9601C97.5129 67.9601 97.5935 67.9876 97.6601 68.0416C97.7259 68.0964 97.7791 68.1559 97.8206 68.2201C97.8637 68.2867 97.9052 68.3658 97.9459 68.4574C97.9874 68.549 98.0179 68.6179 98.0375 68.6641H98.1518C98.2928 68.6641 98.4423 68.632 98.6029 68.5686C98.7634 68.5051 98.9106 68.4018 99.0437 68.2585C99.1784 68.1105 99.3045 67.9124 99.4211 67.6634C99.5378 67.4136 99.631 67.0933 99.6999 66.7034ZM100.208 64.2579C100.208 64.1859 100.197 64.1131 100.175 64.0379C100.154 63.9627 100.114 63.893 100.056 63.8288C99.9998 63.7677 99.9286 63.7192 99.8424 63.6832C99.7555 63.6472 99.6451 63.6299 99.5104 63.6299C99.3139 63.6299 99.1291 63.6894 98.9544 63.8085C98.7798 63.9275 98.6232 64.0896 98.4823 64.2963C98.3531 64.4905 98.2466 64.7254 98.1659 65.0003C98.0845 65.2767 98.0438 65.5531 98.0438 65.8311C98.0438 65.9814 98.0547 66.12 98.0767 66.2468C98.0986 66.3729 98.1354 66.4833 98.1894 66.5781C98.2427 66.672 98.3139 66.7456 98.4016 66.7973C98.4893 66.8498 98.6036 66.8764 98.7446 66.8764C98.9231 66.8764 99.0993 66.8247 99.2755 66.7214C99.4517 66.618 99.6185 66.4857 99.7774 66.3252L100.208 64.2579Z" fill="#D9EBFF"/>
<path d="M105.014 64.1553C105.014 64.4262 104.929 64.6588 104.76 64.8522C104.591 65.0464 104.344 65.2007 104.021 65.3158C103.784 65.4027 103.544 65.4732 103.302 65.5272C103.059 65.5804 102.792 65.6251 102.499 65.6611C102.499 66.0644 102.574 66.3713 102.723 66.5851C102.871 66.7973 103.091 66.9038 103.379 66.9038C103.633 66.9038 103.858 66.8404 104.053 66.7127C104.248 66.5851 104.44 66.3956 104.628 66.1427L104.846 66.3032C104.642 66.6141 104.387 66.8631 104.081 67.0486C103.775 67.2342 103.457 67.3274 103.128 67.3274C102.677 67.3274 102.333 67.2013 102.095 66.9492C101.856 66.6963 101.737 66.3377 101.737 65.8733C101.737 65.5523 101.787 65.2453 101.888 64.9532C101.989 64.6604 102.135 64.3934 102.329 64.1514C102.517 63.9141 102.748 63.7223 103.023 63.5774C103.298 63.4326 103.6 63.3597 103.931 63.3597C104.298 63.3597 104.57 63.4349 104.747 63.5837C104.925 63.7325 105.014 63.9235 105.014 64.1553ZM104.311 64.0613C104.311 63.9619 104.296 63.8836 104.268 63.8264C104.241 63.7693 104.205 63.7262 104.161 63.6988C104.115 63.6683 104.067 63.6495 104.015 63.6416C103.965 63.6338 103.913 63.6299 103.859 63.6299C103.553 63.6299 103.271 63.7982 103.012 64.1342C102.754 64.4701 102.59 64.8882 102.521 65.3894C102.7 65.3643 102.9 65.3275 103.125 65.2805C103.349 65.2328 103.535 65.1717 103.683 65.0957C103.895 64.9861 104.052 64.846 104.155 64.6745C104.259 64.5022 104.311 64.2978 104.311 64.0613Z" fill="#D9EBFF"/>
<path d="M40.6868 19.3959V31.5409L62.2901 38.7848L83.8918 31.5409V19.3959L62.2901 27.1754L40.6868 19.3959Z" fill="white"/>
<path d="M35.0418 15.4792L62.2893 25.1364L97.6608 12.6007L62.2258 0L26.9193 12.6007L33.3254 14.8715H33.2518V32.6841L29.7978 41.3829C29.7978 41.3829 34.0834 46.5635 38.4324 41.3829L35.0426 32.6841L35.0418 15.4792Z" fill="white"/>
</svg>
