<?xml version="1.0" encoding="utf-8"?>
<!-- Generator: Adobe Illustrator 16.0.0, SVG Export Plug-In . SVG Version: 6.00 Build 0)  -->
<!DOCTYPE svg PUBLIC "-//W3C//DTD SVG 1.1//EN" "http://www.w3.org/Graphics/SVG/1.1/DTD/svg11.dtd">
<svg version="1.1" id="Layer_1" xmlns="http://www.w3.org/2000/svg" xmlns:xlink="http://www.w3.org/1999/xlink" x="0px" y="0px"
	 width="283.46px" height="283.46px" viewBox="0 0 283.46 283.46" enable-background="new 0 0 283.46 283.46" xml:space="preserve">
<g opacity="0.8" enable-background="new    ">
	<path fill="#1E3A8A" d="M230.768,141.73h-8c0-44.685-36.354-81.038-81.038-81.038S60.692,97.045,60.692,141.73h-8
		c0-49.096,39.942-89.038,89.038-89.038S230.768,92.634,230.768,141.73z"/>
</g>
<g opacity="0.8" enable-background="new    ">
	<path fill="#1E40AF" d="M223.181,141.73h-7c0-41.053-33.398-74.452-74.451-74.452c-41.053,0-74.452,33.399-74.452,74.452h-7
		c0-44.913,36.539-81.452,81.452-81.452C186.642,60.278,223.181,96.817,223.181,141.73z"/>
</g>
<g opacity="0.8" enable-background="new    ">
	<path fill="#2563EB" d="M215.595,141.73h-6c0-37.421-30.444-67.865-67.865-67.865s-67.865,30.444-67.865,67.865h-6
		c0-40.729,33.136-73.865,73.865-73.865C182.459,67.865,215.595,101,215.595,141.73z"/>
</g>
<g opacity="0.8" enable-background="new    ">
	<path fill="#3B82F6" d="M208.007,141.73h-5c0-33.789-27.489-61.278-61.277-61.278c-33.789,0-61.278,27.489-61.278,61.278h-5
		c0-36.546,29.732-66.278,66.278-66.278S208.007,105.184,208.007,141.73z"/>
</g>
<g opacity="0.8" enable-background="new    ">
	<path fill="#60A5FA" d="M200.421,141.73h-4c0-30.157-24.534-54.692-54.691-54.692s-54.692,24.535-54.692,54.692h-4
		c0-32.363,26.329-58.692,58.692-58.692C174.092,83.038,200.421,109.367,200.421,141.73z"/>
</g>
<g opacity="0.8" enable-background="new    ">
	<path fill="#93C5FD" d="M192.835,141.73h-3c0-26.525-21.58-48.105-48.105-48.105s-48.105,21.58-48.105,48.105h-3
		c0-28.179,22.926-51.105,51.105-51.105C169.91,90.625,192.835,113.551,192.835,141.73z"/>
</g>
<g opacity="0.8" enable-background="new    ">
	<path fill="#BFDBFE" d="M185.25,141.73h-2c0-22.894-18.626-41.519-41.52-41.519s-41.519,18.625-41.519,41.519h-2
		c0-23.997,19.522-43.519,43.519-43.519C165.727,98.211,185.25,117.733,185.25,141.73z"/>
</g>
<g enable-background="new    ">
	<path fill="#3B82F6" d="M81.238,146.691l-0.132,0.58c-0.17,0.006-0.387,0.032-0.65,0.079s-0.46,0.091-0.589,0.132
		c-0.229,0.076-0.393,0.196-0.492,0.36s-0.173,0.341-0.22,0.531l-2.114,9.076c-0.012,0.046-0.021,0.099-0.026,0.157
		s-0.009,0.105-0.009,0.141c0,0.123,0.026,0.233,0.079,0.329c0.053,0.098,0.141,0.184,0.264,0.26
		c0.082,0.053,0.256,0.105,0.523,0.158s0.476,0.082,0.628,0.088l-0.141,0.58h-5.497l0.141-0.58c0.211-0.012,0.475-0.033,0.791-0.066
		c0.316-0.031,0.539-0.08,0.668-0.145c0.205-0.111,0.371-0.24,0.497-0.387s0.209-0.325,0.25-0.536l2.164-9.29h-0.1l-6.797,10.802
		h-0.417l-1.565-11.021h-0.09l-1.771,7.664c-0.07,0.311-0.129,0.612-0.176,0.905s-0.07,0.53-0.07,0.712
		c0,0.193,0.021,0.359,0.062,0.497s0.1,0.25,0.176,0.338c0.105,0.123,0.328,0.234,0.668,0.334s0.606,0.164,0.8,0.193l-0.141,0.58
		h-5.046l0.141-0.58c0.275-0.029,0.551-0.07,0.826-0.123s0.53-0.152,0.765-0.299c0.234-0.158,0.434-0.416,0.598-0.773
		s0.331-0.92,0.501-1.688l1.497-6.469c0.029-0.135,0.051-0.256,0.066-0.365c0.015-0.107,0.022-0.215,0.022-0.32
		c0-0.188-0.023-0.344-0.071-0.471c-0.047-0.125-0.108-0.232-0.185-0.32c-0.152-0.17-0.359-0.29-0.62-0.36s-0.5-0.111-0.716-0.123
		l0.132-0.58h4.213l1.358,9.379l4.846-7.85c0.182-0.299,0.349-0.606,0.501-0.923s0.24-0.519,0.264-0.606H81.238z"/>
	<path fill="#3B82F6" d="M86.054,159.461c-1.23,0-2.192-0.261-2.886-0.782c-0.694-0.521-1.041-1.216-1.041-2.083
		c0-0.123,0.007-0.238,0.022-0.348c0.015-0.107,0.037-0.232,0.066-0.373l1.715-7.418c0.011-0.047,0.02-0.097,0.026-0.149
		s0.009-0.103,0.009-0.149c0-0.117-0.026-0.227-0.079-0.33c-0.053-0.102-0.137-0.191-0.254-0.268
		c-0.129-0.082-0.302-0.146-0.519-0.193s-0.398-0.079-0.545-0.097l0.141-0.58h5.175l-0.141,0.58
		c-0.164,0.006-0.375,0.032-0.633,0.079s-0.451,0.091-0.58,0.132c-0.229,0.076-0.393,0.196-0.492,0.36s-0.173,0.339-0.22,0.525
		l-1.594,6.936c-0.035,0.153-0.066,0.323-0.092,0.511s-0.04,0.369-0.04,0.545c0,0.305,0.032,0.57,0.097,0.796
		s0.205,0.452,0.422,0.681c0.182,0.199,0.436,0.362,0.761,0.487c0.326,0.127,0.735,0.189,1.228,0.189
		c0.669,0,1.241-0.104,1.716-0.313c0.475-0.207,0.871-0.467,1.188-0.777c0.299-0.299,0.544-0.63,0.735-0.993
		c0.19-0.363,0.324-0.712,0.4-1.046c0.211-0.844,0.409-1.666,0.591-2.465c0.182-0.801,0.376-1.675,0.582-2.624
		c0.1-0.469,0.168-0.85,0.207-1.143c0.038-0.293,0.057-0.533,0.057-0.721c0-0.17-0.018-0.306-0.053-0.409
		c-0.035-0.102-0.096-0.191-0.184-0.268c-0.17-0.146-0.425-0.26-0.765-0.338c-0.34-0.08-0.598-0.128-0.773-0.146l0.141-0.58h5.088
		l-0.141,0.58c-0.158,0.006-0.407,0.043-0.747,0.11s-0.615,0.162-0.826,0.285c-0.24,0.141-0.453,0.45-0.637,0.928
		s-0.335,0.977-0.453,1.498c-0.182,0.838-0.368,1.684-0.559,2.535c-0.191,0.854-0.409,1.777-0.656,2.773
		c-0.206,0.814-0.515,1.487-0.928,2.018s-0.877,0.944-1.393,1.243c-0.498,0.287-1.013,0.492-1.546,0.615
		S86.581,159.461,86.054,159.461z"/>
	<path fill="#3B82F6" d="M104.503,146.691l-0.132,0.58c-0.17,0.006-0.381,0.028-0.633,0.065c-0.252,0.039-0.469,0.087-0.65,0.146
		c-0.229,0.076-0.391,0.19-0.488,0.343s-0.171,0.334-0.224,0.545l-1.674,7.436c-0.088,0.393-0.253,0.808-0.496,1.244
		s-0.555,0.827-0.936,1.173c-0.404,0.369-0.858,0.668-1.362,0.896c-0.503,0.229-1.092,0.343-1.766,0.343
		c-0.82,0-1.476-0.205-1.968-0.615c-0.492-0.41-0.738-0.979-0.738-1.705c0-0.58,0.145-1.087,0.435-1.521s0.669-0.65,1.138-0.65
		c0.352,0,0.601,0.085,0.747,0.255s0.22,0.369,0.22,0.598c0,0.205-0.05,0.416-0.149,0.633s-0.229,0.428-0.387,0.633
		c-0.141,0.182-0.296,0.371-0.466,0.566c-0.17,0.197-0.302,0.362-0.396,0.497c0.088,0.176,0.251,0.334,0.492,0.475
		c0.24,0.141,0.597,0.211,1.071,0.211c0.427,0,0.797-0.098,1.11-0.294c0.313-0.196,0.572-0.459,0.777-0.787
		c0.205-0.328,0.382-0.715,0.531-1.16c0.149-0.445,0.285-0.943,0.408-1.495l1.496-6.645c0.006-0.028,0.013-0.072,0.022-0.131
		s0.014-0.111,0.014-0.158c0-0.123-0.027-0.234-0.08-0.334s-0.144-0.185-0.272-0.255c-0.152-0.094-0.375-0.165-0.668-0.215
		s-0.51-0.081-0.65-0.093l0.132-0.58H104.503z"/>
	<path fill="#3B82F6" d="M111.312,146.691l-0.132,0.58c-0.182,0.006-0.419,0.032-0.712,0.079s-0.51,0.091-0.65,0.132
		c-0.246,0.076-0.422,0.193-0.527,0.352s-0.182,0.332-0.229,0.522l-2.115,9.112c-0.012,0.04-0.021,0.086-0.027,0.139
		s-0.009,0.1-0.009,0.141c0,0.135,0.029,0.249,0.088,0.343c0.059,0.094,0.165,0.176,0.317,0.246c0.088,0.041,0.281,0.09,0.58,0.145
		c0.299,0.057,0.521,0.09,0.668,0.102l-0.132,0.58h-5.625l0.132-0.58c0.164-0.012,0.398-0.029,0.703-0.053s0.521-0.059,0.65-0.105
		c0.229-0.082,0.401-0.194,0.519-0.338s0.196-0.318,0.237-0.523l2.109-9.123c0.012-0.053,0.021-0.105,0.026-0.158
		s0.009-0.105,0.009-0.158c0-0.117-0.025-0.22-0.075-0.308s-0.154-0.167-0.312-0.237s-0.374-0.137-0.646-0.197
		c-0.272-0.063-0.473-0.099-0.602-0.11l0.132-0.58H111.312z"/>
	<path fill="#3B82F6" d="M120.34,159.461c-1.23,0-2.192-0.261-2.886-0.782c-0.694-0.521-1.041-1.216-1.041-2.083
		c0-0.123,0.007-0.238,0.022-0.348c0.015-0.107,0.037-0.232,0.066-0.373l1.715-7.418c0.011-0.047,0.02-0.097,0.026-0.149
		s0.009-0.103,0.009-0.149c0-0.117-0.026-0.227-0.079-0.33c-0.053-0.102-0.137-0.191-0.254-0.268
		c-0.129-0.082-0.302-0.146-0.519-0.193s-0.398-0.079-0.545-0.097l0.141-0.58h5.175l-0.141,0.58
		c-0.164,0.006-0.375,0.032-0.633,0.079s-0.451,0.091-0.58,0.132c-0.229,0.076-0.393,0.196-0.492,0.36s-0.173,0.339-0.22,0.525
		l-1.594,6.936c-0.035,0.153-0.066,0.323-0.092,0.511s-0.04,0.369-0.04,0.545c0,0.305,0.032,0.57,0.097,0.796
		s0.205,0.452,0.422,0.681c0.182,0.199,0.436,0.362,0.761,0.487c0.326,0.127,0.735,0.189,1.228,0.189
		c0.669,0,1.241-0.104,1.716-0.313c0.475-0.207,0.871-0.467,1.188-0.777c0.299-0.299,0.544-0.63,0.735-0.993
		c0.19-0.363,0.324-0.712,0.4-1.046c0.211-0.844,0.409-1.666,0.591-2.465c0.182-0.801,0.376-1.675,0.582-2.624
		c0.1-0.469,0.168-0.85,0.207-1.143c0.038-0.293,0.057-0.533,0.057-0.721c0-0.17-0.018-0.306-0.053-0.409
		c-0.035-0.102-0.096-0.191-0.184-0.268c-0.17-0.146-0.425-0.26-0.765-0.338c-0.34-0.08-0.598-0.128-0.773-0.146l0.141-0.58h5.088
		l-0.141,0.58c-0.158,0.006-0.407,0.043-0.747,0.11s-0.615,0.162-0.826,0.285c-0.24,0.141-0.453,0.45-0.637,0.928
		s-0.335,0.977-0.453,1.498c-0.182,0.838-0.368,1.684-0.559,2.535c-0.191,0.854-0.409,1.777-0.656,2.773
		c-0.206,0.814-0.515,1.487-0.928,2.018s-0.877,0.944-1.393,1.243c-0.498,0.287-1.013,0.492-1.546,0.615
		S120.867,159.461,120.34,159.461z"/>
	<path fill="#3B82F6" d="M143.624,146.691l-0.141,0.58c-0.158,0.006-0.419,0.053-0.782,0.141s-0.627,0.179-0.791,0.272
		c-0.252,0.146-0.458,0.426-0.62,0.84c-0.161,0.412-0.318,0.941-0.471,1.586l-2.125,9.176h-0.785l-5.105-10.534l-1.575,6.808
		c-0.071,0.305-0.129,0.612-0.177,0.923s-0.071,0.563-0.071,0.756c0,0.205,0.021,0.371,0.062,0.497s0.097,0.229,0.167,0.312
		c0.1,0.123,0.349,0.24,0.747,0.352s0.662,0.173,0.791,0.185l-0.132,0.58h-5.113l0.132-0.58c0.193-0.018,0.478-0.074,0.853-0.172
		c0.375-0.096,0.624-0.188,0.747-0.276c0.234-0.158,0.434-0.414,0.598-0.769s0.334-0.925,0.511-1.71l1.405-6.047
		c0.041-0.193,0.071-0.358,0.088-0.497c0.018-0.137,0.026-0.265,0.026-0.382c0-0.141-0.016-0.273-0.048-0.399
		c-0.033-0.126-0.107-0.26-0.225-0.4c-0.205-0.234-0.456-0.396-0.751-0.488c-0.296-0.09-0.561-0.147-0.795-0.171l0.141-0.58h3.583
		l4.732,9.742l1.436-6.209c0.07-0.311,0.129-0.613,0.176-0.909s0.07-0.55,0.07-0.761c0-0.193-0.019-0.356-0.057-0.487
		c-0.038-0.133-0.095-0.23-0.171-0.295c-0.141-0.123-0.378-0.229-0.712-0.32s-0.609-0.151-0.826-0.181l0.141-0.58H143.624z"/>
	<path fill="#3B82F6" d="M150.089,146.691l-0.132,0.58c-0.182,0.006-0.419,0.032-0.712,0.079s-0.51,0.091-0.65,0.132
		c-0.246,0.076-0.422,0.193-0.527,0.352s-0.182,0.332-0.229,0.522l-2.115,9.112c-0.012,0.04-0.021,0.086-0.027,0.139
		s-0.008,0.1-0.008,0.141c0,0.135,0.029,0.249,0.088,0.343s0.164,0.176,0.316,0.246c0.088,0.041,0.281,0.09,0.58,0.145
		c0.299,0.057,0.521,0.09,0.668,0.102l-0.132,0.58h-5.625l0.132-0.58c0.164-0.012,0.398-0.029,0.703-0.053s0.521-0.059,0.65-0.105
		c0.229-0.082,0.401-0.194,0.519-0.338s0.196-0.318,0.237-0.523l2.109-9.123c0.012-0.053,0.02-0.105,0.025-0.158
		s0.01-0.105,0.01-0.158c0-0.117-0.025-0.22-0.075-0.308s-0.153-0.167-0.312-0.237s-0.374-0.137-0.646-0.197
		c-0.272-0.063-0.473-0.099-0.602-0.11l0.131-0.58H150.089z"/>
	<path fill="#3B82F6" d="M163.17,146.691l-0.132,0.58c-0.152,0.006-0.343,0.038-0.571,0.097s-0.428,0.135-0.598,0.229
		c-0.252,0.141-0.456,0.305-0.61,0.492c-0.156,0.188-0.318,0.41-0.488,0.668c-0.609,0.932-1.539,2.391-2.791,4.377
		c-1.25,1.986-2.538,4.049-3.862,6.188h-0.729c-0.281-1.975-0.584-4.117-0.91-6.43c-0.324-2.311-0.537-3.789-0.637-4.434
		c-0.029-0.193-0.086-0.355-0.172-0.488c-0.084-0.131-0.209-0.259-0.373-0.382c-0.135-0.1-0.293-0.174-0.475-0.224
		s-0.352-0.081-0.51-0.093l0.132-0.58h5.052l-0.133,0.58c-0.621,0.029-1.059,0.09-1.313,0.181s-0.382,0.224-0.382,0.399
		c0,0.059,0.002,0.122,0.008,0.188c0.006,0.068,0.01,0.116,0.01,0.146c0.076,0.574,0.208,1.521,0.396,2.843
		c0.188,1.321,0.455,3.18,0.803,5.576c0.813-1.271,1.643-2.59,2.489-3.955c0.846-1.364,1.456-2.363,1.831-2.996
		c0.352-0.586,0.566-0.999,0.646-1.239s0.119-0.39,0.119-0.448c0-0.117-0.056-0.217-0.167-0.299s-0.252-0.149-0.422-0.202
		c-0.17-0.059-0.357-0.103-0.563-0.132s-0.381-0.05-0.527-0.062l0.131-0.58H163.17z"/>
	<path fill="#3B82F6" d="M173.181,146.691l-0.694,3.006h-0.659c-0.035-0.621-0.166-1.143-0.391-1.564
		c-0.227-0.422-0.529-0.662-0.91-0.721c-0.176-0.023-0.39-0.041-0.642-0.053s-0.536-0.018-0.853-0.018h-2.004l-1.16,5.019h1.409
		c0.435,0,0.772-0.042,1.013-0.127c0.241-0.085,0.455-0.228,0.644-0.427c0.177-0.176,0.347-0.417,0.511-0.726
		c0.164-0.307,0.281-0.566,0.353-0.777h0.659l-1.125,4.869h-0.659c0-0.064,0.005-0.142,0.013-0.232
		c0.01-0.091,0.014-0.189,0.014-0.295c0-0.217-0.015-0.425-0.044-0.624s-0.069-0.346-0.122-0.439
		c-0.123-0.229-0.298-0.378-0.525-0.448c-0.229-0.07-0.525-0.105-0.893-0.105h-1.4l-0.883,3.816
		c-0.035,0.142-0.064,0.296-0.088,0.46c-0.023,0.165-0.035,0.294-0.035,0.388c0,0.324,0.116,0.538,0.348,0.645
		c0.232,0.105,0.744,0.158,1.535,0.158c0.986,0,1.654-0.035,2.007-0.105c0.353-0.071,0.613-0.174,0.784-0.309
		c0.334-0.271,0.725-0.702,1.174-1.296s0.75-1.025,0.902-1.296h0.633l-1.082,3.674h-10.361l0.132-0.58
		c0.182-0.012,0.422-0.036,0.721-0.074s0.501-0.078,0.606-0.119c0.205-0.076,0.361-0.19,0.471-0.343
		c0.107-0.152,0.183-0.331,0.224-0.536l2.093-9.053c0.012-0.047,0.021-0.1,0.03-0.158s0.013-0.114,0.013-0.167
		c0-0.117-0.024-0.223-0.074-0.316s-0.139-0.173-0.268-0.237c-0.141-0.076-0.34-0.144-0.598-0.202s-0.461-0.094-0.607-0.105
		l0.133-0.58H173.181z"/>
	<path fill="#3B82F6" d="M184.783,158.583l-0.141,0.58h-3.154c-0.499-1.184-0.971-2.195-1.414-3.037
		c-0.443-0.84-0.912-1.721-1.406-2.641h-1.3l-0.931,4.024c-0.012,0.048-0.021,0.104-0.03,0.168s-0.013,0.111-0.013,0.141
		c0,0.135,0.024,0.252,0.074,0.352s0.139,0.179,0.268,0.237c0.082,0.035,0.257,0.072,0.523,0.109
		c0.267,0.039,0.488,0.061,0.664,0.066l-0.141,0.58h-5.278l0.141-0.58c0.146-0.012,0.354-0.032,0.624-0.062s0.463-0.067,0.58-0.114
		c0.211-0.082,0.372-0.2,0.483-0.355s0.188-0.336,0.229-0.541l2.104-9.105c0.012-0.059,0.022-0.119,0.031-0.18
		c0.009-0.063,0.014-0.122,0.014-0.181c0-0.123-0.023-0.231-0.07-0.325s-0.135-0.167-0.264-0.22
		c-0.123-0.047-0.303-0.094-0.537-0.141s-0.428-0.076-0.58-0.088l0.133-0.58h5.609c0.504,0,0.965,0.05,1.381,0.149
		s0.765,0.237,1.047,0.413c0.311,0.188,0.555,0.434,0.734,0.738c0.178,0.305,0.268,0.665,0.268,1.081
		c0,0.551-0.103,1.054-0.309,1.508c-0.205,0.454-0.482,0.842-0.834,1.164c-0.37,0.334-0.789,0.611-1.258,0.83
		c-0.47,0.221-0.985,0.395-1.549,0.523c0.458,0.885,0.83,1.585,1.117,2.101s0.625,1.151,1.012,1.907
		c0.199,0.381,0.378,0.654,0.536,0.822c0.158,0.166,0.325,0.3,0.501,0.399c0.146,0.082,0.338,0.144,0.572,0.185
		S184.642,158.577,184.783,158.583z M182.269,149.257c0-0.598-0.184-1.063-0.551-1.397c-0.366-0.334-0.881-0.501-1.544-0.501h-1.399
		l-1.233,5.414h1.247c0.961,0,1.781-0.335,2.461-1.007C181.929,151.096,182.269,150.259,182.269,149.257z"/>
	<path fill="#3B82F6" d="M189.705,159.417c-0.721,0-1.352-0.09-1.895-0.269c-0.541-0.178-0.979-0.385-1.313-0.619l-0.501,0.642
		h-0.703l0.861-4.271h0.712c0.029,0.51,0.099,0.987,0.206,1.433c0.108,0.445,0.285,0.847,0.531,1.204
		c0.246,0.369,0.564,0.655,0.957,0.856c0.392,0.203,0.877,0.304,1.457,0.304c0.871,0,1.57-0.241,2.097-0.726
		c0.526-0.482,0.79-1.144,0.79-1.981c0-0.451-0.111-0.853-0.334-1.204c-0.222-0.352-0.555-0.624-1-0.817
		c-0.421-0.182-0.838-0.344-1.25-0.487s-0.818-0.313-1.216-0.506c-0.526-0.252-0.95-0.613-1.272-1.086
		c-0.322-0.471-0.482-1.003-0.482-1.595c0-0.563,0.125-1.081,0.373-1.556c0.25-0.475,0.579-0.885,0.989-1.23
		c0.398-0.334,0.88-0.601,1.446-0.8c0.564-0.199,1.126-0.299,1.683-0.299c0.521,0,1.015,0.062,1.481,0.185
		c0.465,0.123,0.933,0.354,1.401,0.694l0.483-0.598h0.703l-0.888,4.14h-0.712c-0.018-0.451-0.063-0.917-0.137-1.397
		c-0.072-0.48-0.197-0.879-0.372-1.195c-0.193-0.346-0.462-0.616-0.808-0.813c-0.345-0.195-0.804-0.294-1.377-0.294
		c-0.69,0-1.27,0.239-1.738,0.716c-0.467,0.479-0.701,1.045-0.701,1.701c0,0.434,0.086,0.802,0.259,1.104s0.44,0.546,0.804,0.733
		c0.385,0.199,0.791,0.371,1.215,0.515s0.803,0.294,1.137,0.452c0.672,0.316,1.197,0.697,1.574,1.143
		c0.378,0.445,0.566,0.99,0.566,1.635c0,0.621-0.135,1.201-0.404,1.74s-0.63,0.99-1.081,1.354c-0.475,0.387-1.007,0.683-1.595,0.888
		C191.062,159.315,190.414,159.417,189.705,159.417z"/>
	<path fill="#3B82F6" d="M203.588,146.691l-0.132,0.58c-0.182,0.006-0.419,0.032-0.712,0.079s-0.51,0.091-0.65,0.132
		c-0.246,0.076-0.422,0.193-0.527,0.352s-0.182,0.332-0.229,0.522l-2.115,9.112c-0.012,0.04-0.021,0.086-0.026,0.139
		s-0.01,0.1-0.01,0.141c0,0.135,0.029,0.249,0.088,0.343c0.06,0.094,0.165,0.176,0.317,0.246c0.088,0.041,0.281,0.09,0.58,0.145
		c0.299,0.057,0.521,0.09,0.668,0.102l-0.132,0.58h-5.625l0.132-0.58c0.164-0.012,0.398-0.029,0.703-0.053s0.521-0.059,0.65-0.105
		c0.229-0.082,0.401-0.194,0.519-0.338s0.196-0.318,0.237-0.523l2.108-9.123c0.012-0.053,0.021-0.105,0.027-0.158
		s0.008-0.105,0.008-0.158c0-0.117-0.024-0.22-0.074-0.308s-0.154-0.167-0.313-0.237s-0.373-0.137-0.646-0.197
		c-0.272-0.063-0.474-0.099-0.603-0.11l0.133-0.58H203.588z"/>
	<path fill="#3B82F6" d="M215.272,146.691l-0.782,3.384h-0.606c-0.006-0.205-0.033-0.466-0.083-0.782s-0.121-0.601-0.215-0.853
		c-0.1-0.27-0.229-0.501-0.39-0.694c-0.161-0.193-0.352-0.308-0.574-0.343c-0.175-0.023-0.398-0.041-0.67-0.053
		s-0.524-0.018-0.758-0.018h-0.552l-2.326,10.064c-0.012,0.046-0.021,0.098-0.026,0.152c-0.006,0.057-0.009,0.11-0.009,0.163
		c0,0.141,0.026,0.257,0.079,0.347c0.053,0.092,0.152,0.172,0.299,0.242c0.117,0.047,0.329,0.104,0.637,0.172
		s0.559,0.104,0.752,0.109l-0.141,0.58h-5.894l0.141-0.58c0.176-0.012,0.431-0.035,0.765-0.07s0.577-0.079,0.729-0.132
		c0.234-0.088,0.41-0.208,0.527-0.36s0.199-0.334,0.246-0.545l2.345-10.143h-0.467c-0.176,0-0.396,0.004-0.66,0.014
		c-0.264,0.008-0.534,0.027-0.81,0.057c-0.193,0.023-0.42,0.14-0.678,0.348c-0.259,0.208-0.517,0.452-0.775,0.733
		c-0.246,0.275-0.469,0.556-0.668,0.839c-0.199,0.285-0.355,0.535-0.467,0.752h-0.615l0.782-3.384H215.272z"/>
	<path fill="#3B82F6" d="M226.953,146.691l-0.141,0.58c-0.105,0.006-0.27,0.043-0.492,0.11s-0.398,0.142-0.527,0.224
		c-0.258,0.135-0.438,0.241-0.541,0.321c-0.103,0.078-0.306,0.279-0.61,0.602c-0.557,0.586-1.148,1.271-1.776,2.057
		c-0.627,0.785-1.283,1.605-1.969,2.461c-0.305,0.375-0.518,0.679-0.639,0.91s-0.235,0.563-0.341,0.997l-0.554,2.426
		c-0.012,0.047-0.021,0.1-0.026,0.158s-0.008,0.108-0.008,0.149c0,0.146,0.025,0.27,0.078,0.369s0.152,0.185,0.299,0.255
		c0.129,0.059,0.345,0.117,0.646,0.176s0.54,0.091,0.716,0.097l-0.132,0.58h-5.831l0.132-0.58c0.17-0.012,0.419-0.032,0.747-0.062
		s0.568-0.073,0.721-0.132c0.234-0.088,0.409-0.209,0.522-0.365c0.115-0.154,0.195-0.341,0.242-0.558l0.633-2.733
		c0.018-0.088,0.035-0.176,0.053-0.264s0.026-0.141,0.026-0.158c0-0.141-0.026-0.323-0.079-0.549s-0.117-0.465-0.193-0.717
		c-0.199-0.697-0.412-1.421-0.637-2.171c-0.227-0.75-0.45-1.453-0.673-2.109c-0.111-0.322-0.224-0.572-0.339-0.751
		c-0.113-0.179-0.253-0.33-0.417-0.453c-0.117-0.088-0.269-0.155-0.452-0.202c-0.186-0.047-0.356-0.076-0.515-0.088l0.141-0.58
		h5.112l-0.141,0.58c-0.135,0.006-0.308,0.015-0.519,0.026s-0.401,0.029-0.571,0.053c-0.164,0.023-0.313,0.069-0.444,0.137
		s-0.197,0.153-0.197,0.259c0,0.112,0.038,0.304,0.114,0.576c0.076,0.273,0.196,0.68,0.36,1.219c0.142,0.47,0.307,0.996,0.498,1.579
		c0.19,0.584,0.403,1.248,0.639,1.992c0.855-1.037,1.62-1.98,2.291-2.828c0.672-0.847,1.125-1.436,1.359-1.764
		c0.182-0.252,0.29-0.415,0.325-0.488s0.053-0.136,0.053-0.188c0-0.2-0.144-0.341-0.431-0.423s-0.647-0.132-1.081-0.149l0.141-0.58
		H226.953z"/>
</g>
<g enable-background="new    ">
	<path fill="#60A5FA" d="M99.473,171.013l-0.078,0.322h-1.752c-0.277-0.657-0.54-1.22-0.786-1.688
		c-0.246-0.467-0.506-0.956-0.781-1.467h-0.722l-0.517,2.235c-0.006,0.026-0.012,0.058-0.017,0.094s-0.007,0.062-0.007,0.078
		c0,0.075,0.014,0.14,0.042,0.195s0.077,0.1,0.149,0.132c0.045,0.02,0.143,0.04,0.291,0.061c0.148,0.021,0.271,0.034,0.369,0.037
		l-0.078,0.322h-2.932l0.078-0.322c0.082-0.007,0.197-0.018,0.347-0.034s0.257-0.037,0.322-0.063
		c0.117-0.046,0.207-0.111,0.269-0.197c0.062-0.087,0.104-0.187,0.127-0.301l1.169-5.059c0.006-0.032,0.012-0.066,0.017-0.1
		c0.005-0.035,0.007-0.068,0.007-0.101c0-0.068-0.013-0.129-0.039-0.181c-0.026-0.052-0.075-0.093-0.146-0.122
		c-0.068-0.026-0.168-0.052-0.298-0.078c-0.13-0.026-0.238-0.042-0.322-0.049l0.073-0.322h3.117c0.28,0,0.536,0.027,0.767,0.083
		c0.231,0.056,0.425,0.132,0.581,0.229c0.173,0.104,0.309,0.241,0.408,0.41c0.099,0.169,0.149,0.369,0.149,0.601
		c0,0.306-0.057,0.585-0.171,0.838c-0.114,0.252-0.269,0.468-0.464,0.646c-0.205,0.186-0.438,0.34-0.699,0.461
		c-0.26,0.123-0.547,0.22-0.86,0.291c0.254,0.491,0.461,0.881,0.621,1.167s0.347,0.64,0.562,1.06c0.11,0.212,0.21,0.363,0.298,0.457
		c0.088,0.092,0.181,0.166,0.278,0.222c0.082,0.046,0.188,0.08,0.318,0.103C99.29,170.997,99.395,171.01,99.473,171.013z
		 M98.076,165.833c0-0.332-0.102-0.591-0.306-0.776s-0.49-0.278-0.858-0.278h-0.777l-0.686,3.008h0.693
		c0.534,0,0.989-0.187,1.367-0.56C97.887,166.854,98.076,166.389,98.076,165.833z"/>
	<path fill="#60A5FA" d="M103.194,170.69h-0.034c-0.072,0.059-0.157,0.133-0.256,0.223s-0.215,0.175-0.349,0.257
		c-0.126,0.081-0.265,0.152-0.414,0.212c-0.15,0.061-0.313,0.091-0.488,0.091c-0.472,0-0.841-0.169-1.109-0.508
		c-0.268-0.34-0.402-0.802-0.402-1.389c0-0.404,0.075-0.797,0.225-1.178c0.149-0.381,0.356-0.724,0.62-1.026
		c0.25-0.29,0.548-0.523,0.893-0.701c0.345-0.178,0.699-0.267,1.063-0.267c0.231,0,0.451,0.031,0.661,0.093
		c0.21,0.063,0.375,0.132,0.495,0.21l0.896-0.229l0.059,0.073l-0.744,3.153c-0.026,0.101-0.053,0.224-0.081,0.369
		c-0.028,0.145-0.042,0.251-0.042,0.319c0,0.187,0.039,0.312,0.117,0.377s0.21,0.098,0.396,0.098c0.062,0,0.15-0.01,0.264-0.029
		s0.202-0.041,0.264-0.063l-0.073,0.313c-0.294,0.117-0.512,0.202-0.656,0.254s-0.318,0.078-0.523,0.078
		c-0.235,0-0.421-0.068-0.558-0.205C103.282,171.077,103.207,170.902,103.194,170.69z M103.898,167.601
		c0-0.107-0.012-0.21-0.034-0.308c-0.023-0.098-0.07-0.189-0.142-0.274c-0.065-0.081-0.154-0.146-0.269-0.195
		c-0.114-0.049-0.257-0.073-0.43-0.073c-0.238,0-0.469,0.078-0.694,0.234s-0.427,0.367-0.605,0.631
		c-0.169,0.248-0.308,0.548-0.416,0.899c-0.107,0.353-0.161,0.709-0.161,1.07c0,0.199,0.011,0.375,0.034,0.528
		c0.022,0.153,0.066,0.293,0.131,0.421c0.062,0.123,0.151,0.22,0.268,0.288c0.117,0.068,0.265,0.103,0.444,0.103
		c0.182,0,0.373-0.051,0.572-0.154c0.2-0.103,0.425-0.282,0.675-0.54L103.898,167.601z"/>
	<path fill="#60A5FA" d="M108.218,170.803l-0.073,0.313c-0.299,0.12-0.539,0.204-0.718,0.251c-0.179,0.048-0.332,0.071-0.459,0.071
		c-0.26,0-0.456-0.067-0.586-0.203c-0.13-0.135-0.195-0.302-0.195-0.501c0-0.074,0.006-0.153,0.02-0.234s0.034-0.185,0.063-0.308
		l0.516-2.078c0.026-0.113,0.051-0.236,0.075-0.366c0.024-0.131,0.037-0.241,0.037-0.333c0-0.182-0.03-0.304-0.09-0.363
		c-0.06-0.061-0.183-0.091-0.368-0.091c-0.072,0-0.167,0.012-0.285,0.034s-0.209,0.042-0.271,0.059l0.073-0.313
		c0.254-0.114,0.481-0.198,0.683-0.254s0.361-0.083,0.479-0.083c0.267,0,0.46,0.063,0.581,0.19c0.121,0.127,0.181,0.299,0.181,0.514
		c0,0.059-0.006,0.139-0.02,0.239c-0.013,0.102-0.032,0.202-0.059,0.303l-0.519,2.078c-0.033,0.127-0.061,0.251-0.085,0.374
		c-0.024,0.122-0.037,0.222-0.037,0.3c0,0.187,0.042,0.313,0.124,0.382c0.083,0.068,0.217,0.103,0.402,0.103
		c0.062,0,0.15-0.008,0.265-0.024S108.156,170.826,108.218,170.803z M108.564,164.558c0,0.186-0.06,0.348-0.181,0.486
		c-0.121,0.138-0.27,0.207-0.449,0.207c-0.166,0-0.309-0.066-0.43-0.197c-0.121-0.133-0.181-0.283-0.181-0.452
		c0-0.179,0.06-0.335,0.181-0.469s0.264-0.2,0.43-0.2c0.186,0,0.337,0.063,0.454,0.188
		C108.506,164.247,108.564,164.392,108.564,164.558z"/>
	<path fill="#60A5FA" d="M114.111,170.769l-0.073,0.313c-0.294,0.117-0.523,0.203-0.687,0.256c-0.163,0.055-0.328,0.081-0.495,0.081
		c-0.261,0-0.458-0.067-0.588-0.203c-0.131-0.135-0.196-0.302-0.196-0.501c0-0.071,0.007-0.15,0.02-0.237
		c0.013-0.086,0.035-0.188,0.064-0.305l0.482-1.823c0.036-0.141,0.065-0.268,0.086-0.382s0.032-0.205,0.032-0.273
		c0-0.219-0.052-0.392-0.155-0.519s-0.257-0.19-0.46-0.19c-0.197,0-0.418,0.065-0.664,0.195c-0.246,0.131-0.476,0.32-0.692,0.567
		l-0.834,3.588h-0.912l0.732-3.168c0.016-0.078,0.04-0.191,0.071-0.34c0.031-0.147,0.046-0.268,0.046-0.358
		c0-0.183-0.031-0.305-0.093-0.367c-0.062-0.062-0.186-0.093-0.373-0.093c-0.072,0-0.164,0.012-0.275,0.037
		c-0.111,0.023-0.198,0.044-0.26,0.061l0.074-0.313c0.255-0.114,0.481-0.198,0.677-0.254s0.365-0.083,0.506-0.083
		c0.258,0,0.443,0.07,0.554,0.21c0.111,0.141,0.17,0.334,0.177,0.582h0.029c0.357-0.287,0.665-0.499,0.924-0.638
		s0.555-0.208,0.886-0.208c0.311,0,0.554,0.091,0.729,0.271s0.263,0.418,0.263,0.711c0,0.059-0.009,0.163-0.027,0.313
		c-0.018,0.15-0.046,0.299-0.085,0.445l-0.411,1.569c-0.029,0.104-0.058,0.224-0.085,0.359c-0.028,0.135-0.042,0.24-0.042,0.314
		c0,0.187,0.041,0.313,0.122,0.379c0.081,0.067,0.215,0.101,0.4,0.101c0.062,0,0.151-0.011,0.267-0.031
		C113.96,170.814,114.049,170.792,114.111,170.769z"/>
	<path fill="#60A5FA" d="M119.595,168.271c0,0.434-0.078,0.848-0.234,1.244c-0.156,0.396-0.363,0.736-0.62,1.023
		c-0.264,0.293-0.562,0.523-0.894,0.691s-0.684,0.252-1.055,0.252c-0.28,0-0.526-0.023-0.74-0.07
		c-0.213-0.048-0.395-0.112-0.544-0.193c-0.153-0.085-0.28-0.18-0.381-0.286c-0.101-0.105-0.192-0.224-0.273-0.354l1.259-5.53
		c0.016-0.075,0.03-0.14,0.041-0.193c0.012-0.054,0.018-0.108,0.018-0.164c0-0.117-0.02-0.207-0.059-0.271s-0.095-0.112-0.166-0.145
		c-0.068-0.029-0.154-0.049-0.258-0.059s-0.209-0.021-0.317-0.034l0.068-0.298l1.803-0.107l0.048,0.073l-0.738,3.242h0.02
		c0.293-0.261,0.552-0.44,0.775-0.54c0.223-0.099,0.441-0.148,0.653-0.148c0.496,0,0.885,0.169,1.169,0.506
		S119.595,167.701,119.595,168.271z M118.589,168.295c0-0.173-0.016-0.347-0.046-0.521c-0.031-0.175-0.083-0.32-0.154-0.438
		c-0.075-0.123-0.178-0.221-0.308-0.293c-0.131-0.071-0.292-0.107-0.485-0.107c-0.114,0-0.222,0.02-0.323,0.059
		s-0.206,0.092-0.313,0.156c-0.094,0.059-0.187,0.13-0.276,0.213s-0.172,0.157-0.247,0.223l-0.649,2.898
		c0.01,0.065,0.039,0.137,0.088,0.216c0.049,0.078,0.111,0.146,0.186,0.205c0.091,0.074,0.194,0.132,0.308,0.171
		s0.24,0.059,0.376,0.059c0.258,0,0.5-0.076,0.727-0.228s0.421-0.355,0.584-0.613c0.179-0.28,0.313-0.593,0.401-0.938
		C118.545,169.01,118.589,168.657,118.589,168.295z"/>
	<path fill="#60A5FA" d="M124.98,168.325c0,0.385-0.065,0.769-0.195,1.153s-0.319,0.722-0.566,1.012
		c-0.25,0.3-0.553,0.54-0.906,0.721s-0.763,0.271-1.228,0.271c-0.541,0-0.979-0.174-1.316-0.522s-0.505-0.818-0.505-1.408
		c0-0.434,0.072-0.837,0.215-1.212s0.335-0.704,0.576-0.987c0.244-0.283,0.546-0.513,0.906-0.687c0.36-0.175,0.75-0.262,1.169-0.262
		c0.58,0,1.033,0.177,1.36,0.53S124.98,167.751,124.98,168.325z M123.984,168.139c0-0.463-0.082-0.811-0.247-1.042
		c-0.165-0.23-0.401-0.347-0.71-0.347c-0.27,0-0.525,0.083-0.764,0.249s-0.445,0.437-0.618,0.812
		c-0.133,0.284-0.231,0.599-0.293,0.946c-0.062,0.347-0.093,0.667-0.093,0.96c0,0.467,0.081,0.819,0.242,1.059
		s0.404,0.359,0.73,0.359c0.29,0,0.547-0.091,0.771-0.273s0.407-0.414,0.547-0.694c0.14-0.273,0.248-0.588,0.322-0.941
		S123.984,168.51,123.984,168.139z"/>
	<path fill="#60A5FA" d="M133.223,167.308c0,0.512-0.073,1.019-0.22,1.52c-0.146,0.502-0.347,0.943-0.601,1.325
		c-0.283,0.423-0.604,0.751-0.962,0.982c-0.358,0.23-0.747,0.347-1.167,0.347c-0.306,0-0.588-0.085-0.847-0.254
		c-0.259-0.17-0.432-0.402-0.52-0.699c-0.117,0.114-0.226,0.22-0.325,0.317c-0.099,0.099-0.229,0.199-0.388,0.304
		c-0.16,0.104-0.305,0.184-0.437,0.239s-0.3,0.083-0.505,0.083c-0.248,0-0.452-0.038-0.613-0.115
		c-0.161-0.076-0.291-0.177-0.388-0.3c-0.091-0.118-0.156-0.25-0.195-0.398s-0.059-0.305-0.059-0.467
		c0-0.063,0.007-0.141,0.022-0.235c0.015-0.094,0.03-0.176,0.046-0.244l0.415-1.545c0.039-0.146,0.067-0.28,0.085-0.4
		c0.018-0.121,0.027-0.22,0.027-0.298c0-0.183-0.03-0.305-0.09-0.364c-0.06-0.061-0.183-0.091-0.369-0.091
		c-0.072,0-0.163,0.014-0.273,0.041s-0.197,0.05-0.259,0.066l0.073-0.314c0.253-0.115,0.476-0.202,0.669-0.261
		c0.193-0.06,0.349-0.089,0.465-0.089c0.26,0,0.451,0.062,0.572,0.184s0.183,0.296,0.183,0.521c0,0.059-0.006,0.139-0.02,0.239
		c-0.013,0.102-0.032,0.202-0.058,0.303l-0.451,1.804c-0.029,0.121-0.053,0.245-0.073,0.372s-0.029,0.222-0.029,0.283
		c0,0.244,0.049,0.43,0.146,0.555c0.098,0.126,0.262,0.188,0.493,0.188c0.206,0,0.42-0.057,0.645-0.169
		c0.225-0.112,0.43-0.276,0.616-0.491l0.864-3.71l0.85-0.059l0.059,0.073l-0.689,2.977c-0.023,0.099-0.046,0.218-0.071,0.359
		s-0.037,0.23-0.037,0.267c0,0.18,0.028,0.321,0.085,0.426c0.057,0.104,0.129,0.181,0.217,0.229c0.084,0.049,0.172,0.079,0.264,0.09
		c0.091,0.012,0.179,0.018,0.264,0.018c0.221,0,0.448-0.07,0.681-0.21c0.232-0.141,0.436-0.323,0.608-0.548
		c0.192-0.251,0.343-0.528,0.454-0.833s0.166-0.633,0.166-0.985c0-0.195-0.027-0.346-0.081-0.452
		c-0.054-0.105-0.113-0.198-0.178-0.276c-0.065-0.081-0.125-0.167-0.178-0.256c-0.054-0.09-0.081-0.217-0.081-0.379
		c0-0.187,0.062-0.328,0.186-0.426s0.254-0.146,0.391-0.146c0.192,0,0.343,0.077,0.452,0.232
		C133.168,166.791,133.223,167.015,133.223,167.308z"/>
	<path fill="#60A5FA" d="M140.986,168.325c0,0.385-0.065,0.769-0.195,1.153s-0.319,0.722-0.566,1.012
		c-0.25,0.3-0.553,0.54-0.906,0.721s-0.763,0.271-1.228,0.271c-0.541,0-0.979-0.174-1.316-0.522s-0.505-0.818-0.505-1.408
		c0-0.434,0.072-0.837,0.215-1.212s0.335-0.704,0.576-0.987c0.244-0.283,0.546-0.513,0.906-0.687c0.36-0.175,0.75-0.262,1.169-0.262
		c0.58,0,1.033,0.177,1.36,0.53S140.986,167.751,140.986,168.325z M139.99,168.139c0-0.463-0.082-0.811-0.247-1.042
		c-0.165-0.23-0.401-0.347-0.71-0.347c-0.27,0-0.525,0.083-0.764,0.249s-0.445,0.437-0.618,0.812
		c-0.133,0.284-0.231,0.599-0.293,0.946c-0.062,0.347-0.093,0.667-0.093,0.96c0,0.467,0.081,0.819,0.242,1.059
		s0.404,0.359,0.73,0.359c0.29,0,0.547-0.091,0.771-0.273s0.407-0.414,0.547-0.694c0.14-0.273,0.248-0.588,0.322-0.941
		S139.99,168.51,139.99,168.139z"/>
	<path fill="#60A5FA" d="M143.728,167.009l-0.861,4.033c-0.152,0.723-0.475,1.313-0.965,1.772s-0.997,0.688-1.517,0.688
		c-0.286,0-0.497-0.055-0.631-0.164c-0.135-0.108-0.203-0.246-0.203-0.412c0-0.14,0.042-0.264,0.127-0.371s0.207-0.161,0.366-0.161
		c0.101,0,0.19,0.022,0.266,0.068c0.077,0.046,0.144,0.103,0.203,0.171c0.046,0.056,0.097,0.13,0.154,0.225
		c0.057,0.095,0.107,0.176,0.149,0.244c0.251-0.02,0.465-0.188,0.642-0.508c0.178-0.319,0.332-0.774,0.461-1.367l0.9-4.219h-0.954
		l0.103-0.444h0.94l0.07-0.331c0.078-0.377,0.202-0.717,0.371-1.02c0.17-0.302,0.361-0.559,0.576-0.77
		c0.212-0.208,0.452-0.371,0.721-0.49c0.269-0.118,0.526-0.178,0.773-0.178c0.287,0,0.498,0.055,0.633,0.164
		c0.135,0.108,0.203,0.246,0.203,0.412c0,0.14-0.041,0.264-0.121,0.371s-0.205,0.161-0.375,0.161c-0.101,0-0.189-0.022-0.264-0.065
		c-0.076-0.045-0.143-0.103-0.201-0.174c-0.065-0.081-0.117-0.158-0.156-0.229s-0.089-0.151-0.147-0.239
		c-0.226,0.01-0.425,0.157-0.599,0.443c-0.172,0.286-0.328,0.762-0.466,1.428l-0.109,0.517h1.231l-0.102,0.444H143.728z"/>
	<path fill="#60A5FA" d="M154.81,164.407l-0.074,0.322c-0.016,0-0.078,0.006-0.186,0.017c-0.107,0.012-0.213,0.029-0.316,0.052
		c-0.131,0.029-0.257,0.069-0.379,0.12c-0.122,0.05-0.236,0.122-0.344,0.217c-0.427,0.381-0.886,0.79-1.377,1.229
		c-0.492,0.438-0.953,0.83-1.383,1.179c0.29,0.452,0.569,0.9,0.838,1.343s0.528,0.879,0.779,1.309
		c0.091,0.156,0.192,0.295,0.305,0.415s0.221,0.21,0.324,0.269c0.072,0.042,0.173,0.075,0.303,0.098
		c0.131,0.022,0.236,0.036,0.318,0.039l-0.084,0.322h-1.764c-0.26-0.563-0.547-1.118-0.859-1.665s-0.654-1.089-1.025-1.626h-0.268
		l-0.541,2.339c-0.007,0.026-0.012,0.053-0.016,0.081c-0.002,0.027-0.004,0.056-0.004,0.085c0,0.078,0.012,0.142,0.033,0.19
		c0.023,0.049,0.076,0.095,0.156,0.137c0.043,0.022,0.137,0.051,0.281,0.083s0.255,0.051,0.33,0.054l-0.074,0.322h-2.875
		l0.072-0.322c0.082-0.007,0.194-0.017,0.338-0.029c0.143-0.013,0.247-0.032,0.313-0.059c0.117-0.046,0.205-0.109,0.266-0.193
		c0.061-0.082,0.102-0.181,0.125-0.295l1.166-5.049c0.007-0.029,0.012-0.059,0.016-0.088c0.003-0.029,0.004-0.059,0.004-0.088
		c0-0.071-0.014-0.134-0.043-0.186s-0.077-0.095-0.143-0.127c-0.059-0.032-0.146-0.066-0.266-0.1
		c-0.119-0.035-0.227-0.059-0.324-0.071l0.072-0.322h2.875l-0.072,0.322c-0.092,0.003-0.209,0.018-0.352,0.044
		c-0.144,0.026-0.251,0.051-0.322,0.073c-0.121,0.039-0.211,0.104-0.27,0.198c-0.059,0.092-0.101,0.19-0.127,0.295l-0.564,2.466
		h0.094c0.465-0.329,0.924-0.688,1.377-1.079c0.452-0.391,0.821-0.732,1.107-1.025c0.176-0.179,0.311-0.33,0.404-0.451
		c0.092-0.123,0.139-0.223,0.139-0.301c0-0.059-0.057-0.107-0.168-0.146c-0.113-0.039-0.277-0.063-0.492-0.073l0.074-0.322H154.81z"
		/>
	<path fill="#60A5FA" d="M159.566,170.769l-0.074,0.313c-0.294,0.117-0.522,0.203-0.686,0.256c-0.164,0.055-0.328,0.081-0.495,0.081
		c-0.261,0-0.458-0.067-0.588-0.203c-0.131-0.135-0.196-0.302-0.196-0.501c0-0.071,0.007-0.15,0.02-0.237
		c0.014-0.086,0.035-0.188,0.064-0.305l0.482-1.823c0.035-0.141,0.064-0.268,0.086-0.382c0.021-0.114,0.031-0.205,0.031-0.273
		c0-0.219-0.052-0.392-0.155-0.519s-0.257-0.19-0.46-0.19c-0.197,0-0.418,0.065-0.664,0.195c-0.246,0.131-0.477,0.32-0.692,0.567
		l-0.835,3.588h-0.912l0.732-3.168c0.017-0.078,0.04-0.191,0.071-0.34c0.03-0.147,0.046-0.268,0.046-0.358
		c0-0.183-0.031-0.305-0.093-0.367c-0.062-0.062-0.187-0.093-0.372-0.093c-0.072,0-0.164,0.012-0.275,0.037
		c-0.111,0.023-0.198,0.044-0.26,0.061l0.073-0.313c0.255-0.114,0.481-0.198,0.677-0.254c0.197-0.056,0.365-0.083,0.506-0.083
		c0.259,0,0.443,0.07,0.555,0.21c0.111,0.141,0.17,0.334,0.177,0.582h0.029c0.356-0.287,0.665-0.499,0.925-0.638
		c0.259-0.139,0.555-0.208,0.885-0.208c0.312,0,0.555,0.091,0.73,0.271c0.175,0.181,0.262,0.418,0.262,0.711
		c0,0.059-0.008,0.163-0.026,0.313c-0.019,0.15-0.046,0.299-0.085,0.445l-0.411,1.569c-0.029,0.104-0.058,0.224-0.085,0.359
		c-0.028,0.135-0.042,0.24-0.042,0.314c0,0.187,0.04,0.313,0.122,0.379c0.081,0.067,0.215,0.101,0.4,0.101
		c0.063,0,0.15-0.011,0.267-0.031C159.415,170.814,159.503,170.792,159.566,170.769z"/>
	<path fill="#60A5FA" d="M164.898,168.325c0,0.385-0.065,0.769-0.195,1.153c-0.131,0.385-0.319,0.722-0.566,1.012
		c-0.251,0.3-0.553,0.54-0.906,0.721s-0.763,0.271-1.229,0.271c-0.54,0-0.979-0.174-1.315-0.522s-0.505-0.818-0.505-1.408
		c0-0.434,0.071-0.837,0.215-1.212c0.143-0.375,0.335-0.704,0.576-0.987c0.244-0.283,0.545-0.513,0.905-0.687
		c0.36-0.175,0.749-0.262,1.169-0.262c0.58,0,1.033,0.177,1.36,0.53S164.898,167.751,164.898,168.325z M163.902,168.139
		c0-0.463-0.082-0.811-0.247-1.042c-0.165-0.23-0.401-0.347-0.71-0.347c-0.271,0-0.525,0.083-0.765,0.249s-0.445,0.437-0.618,0.812
		c-0.133,0.284-0.23,0.599-0.293,0.946c-0.062,0.347-0.092,0.667-0.092,0.96c0,0.467,0.08,0.819,0.241,1.059
		s0.404,0.359,0.729,0.359c0.29,0,0.547-0.091,0.771-0.273s0.407-0.414,0.547-0.694c0.141-0.273,0.248-0.588,0.322-0.941
		C163.864,168.873,163.902,168.51,163.902,168.139z"/>
	<path fill="#60A5FA" d="M173.14,167.308c0,0.512-0.074,1.019-0.221,1.52c-0.146,0.502-0.346,0.943-0.6,1.325
		c-0.283,0.423-0.604,0.751-0.963,0.982c-0.357,0.23-0.746,0.347-1.166,0.347c-0.307,0-0.589-0.085-0.848-0.254
		c-0.259-0.17-0.432-0.402-0.52-0.699c-0.117,0.114-0.227,0.22-0.325,0.317c-0.099,0.099-0.229,0.199-0.388,0.304
		c-0.16,0.104-0.306,0.184-0.438,0.239s-0.301,0.083-0.506,0.083c-0.247,0-0.451-0.038-0.612-0.115
		c-0.161-0.076-0.29-0.177-0.388-0.3c-0.092-0.118-0.156-0.25-0.195-0.398s-0.059-0.305-0.059-0.467
		c0-0.063,0.007-0.141,0.021-0.235c0.015-0.094,0.03-0.176,0.047-0.244l0.414-1.545c0.039-0.146,0.068-0.28,0.086-0.4
		c0.018-0.121,0.027-0.22,0.027-0.298c0-0.183-0.031-0.305-0.091-0.364c-0.06-0.061-0.183-0.091-0.368-0.091
		c-0.072,0-0.163,0.014-0.273,0.041c-0.111,0.027-0.197,0.05-0.26,0.066l0.074-0.314c0.252-0.115,0.476-0.202,0.669-0.261
		c0.193-0.06,0.349-0.089,0.466-0.089c0.26,0,0.45,0.062,0.572,0.184c0.121,0.122,0.182,0.296,0.182,0.521
		c0,0.059-0.006,0.139-0.02,0.239c-0.012,0.102-0.031,0.202-0.058,0.303l-0.451,1.804c-0.029,0.121-0.054,0.245-0.073,0.372
		s-0.029,0.222-0.029,0.283c0,0.244,0.049,0.43,0.146,0.555c0.098,0.126,0.263,0.188,0.494,0.188c0.205,0,0.42-0.057,0.645-0.169
		s0.43-0.276,0.615-0.491l0.865-3.71l0.85-0.059l0.059,0.073l-0.689,2.977c-0.022,0.099-0.046,0.218-0.07,0.359
		s-0.037,0.23-0.037,0.267c0,0.18,0.029,0.321,0.086,0.426c0.057,0.104,0.129,0.181,0.217,0.229c0.085,0.049,0.173,0.079,0.264,0.09
		c0.092,0.012,0.18,0.018,0.264,0.018c0.222,0,0.449-0.07,0.682-0.21c0.232-0.141,0.436-0.323,0.607-0.548
		c0.192-0.251,0.344-0.528,0.455-0.833c0.11-0.305,0.166-0.633,0.166-0.985c0-0.195-0.027-0.346-0.081-0.452
		c-0.054-0.105-0.113-0.198-0.179-0.276c-0.064-0.081-0.124-0.167-0.178-0.256c-0.054-0.09-0.08-0.217-0.08-0.379
		c0-0.187,0.062-0.328,0.186-0.426c0.123-0.098,0.254-0.146,0.391-0.146c0.191,0,0.342,0.077,0.451,0.232
		C173.085,166.791,173.14,167.015,173.14,167.308z"/>
	<path fill="#60A5FA" d="M176.382,163.85l-1.365,5.879c-0.029,0.124-0.058,0.247-0.084,0.371c-0.025,0.124-0.039,0.225-0.039,0.303
		c0,0.186,0.042,0.313,0.125,0.381c0.082,0.068,0.217,0.103,0.402,0.103c0.064,0,0.161-0.008,0.289-0.024
		c0.129-0.017,0.226-0.036,0.291-0.059l-0.074,0.313c-0.293,0.117-0.518,0.2-0.676,0.249s-0.336,0.073-0.535,0.073
		c-0.26,0-0.457-0.067-0.593-0.203c-0.136-0.135-0.202-0.302-0.202-0.5c0-0.075,0.007-0.153,0.021-0.235
		c0.015-0.081,0.035-0.184,0.061-0.308l1.19-5.145c0.022-0.102,0.038-0.172,0.046-0.211c0.009-0.039,0.013-0.088,0.013-0.146
		c0-0.117-0.02-0.207-0.059-0.271s-0.095-0.112-0.167-0.145c-0.068-0.029-0.155-0.049-0.26-0.059s-0.211-0.021-0.318-0.034
		l0.068-0.298l1.816-0.107L176.382,163.85z"/>
	<path fill="#60A5FA" d="M180.82,167.421c0,0.346-0.107,0.643-0.324,0.89c-0.217,0.248-0.531,0.445-0.945,0.592
		c-0.303,0.111-0.608,0.201-0.918,0.27c-0.309,0.068-0.65,0.125-1.025,0.171c0,0.515,0.096,0.907,0.286,1.18
		c0.19,0.271,0.47,0.407,0.837,0.407c0.326,0,0.613-0.081,0.862-0.244s0.494-0.405,0.735-0.728l0.277,0.205
		c-0.26,0.397-0.586,0.715-0.977,0.952s-0.795,0.356-1.215,0.356c-0.576,0-1.018-0.161-1.321-0.483
		c-0.304-0.323-0.456-0.781-0.456-1.374c0-0.41,0.064-0.802,0.192-1.175c0.128-0.374,0.316-0.715,0.563-1.024
		c0.241-0.303,0.537-0.548,0.887-0.733s0.736-0.278,1.16-0.278c0.469,0,0.816,0.096,1.042,0.286S180.82,167.125,180.82,167.421z
		 M179.921,167.301c0-0.127-0.018-0.227-0.053-0.3c-0.036-0.073-0.082-0.128-0.137-0.163c-0.059-0.039-0.121-0.063-0.186-0.073
		c-0.065-0.01-0.133-0.015-0.201-0.015c-0.391,0-0.75,0.215-1.081,0.644s-0.54,0.963-0.628,1.603
		c0.229-0.032,0.485-0.079,0.771-0.139c0.287-0.061,0.524-0.139,0.713-0.236c0.271-0.14,0.472-0.319,0.604-0.538
		C179.856,167.864,179.921,167.603,179.921,167.301z"/>
	<path fill="#60A5FA" d="M184.455,170.666h-0.034c-0.071,0.063-0.165,0.143-0.278,0.242s-0.232,0.187-0.355,0.262
		c-0.156,0.098-0.301,0.172-0.432,0.225c-0.132,0.052-0.294,0.078-0.486,0.078c-0.471,0-0.841-0.17-1.109-0.511
		c-0.268-0.341-0.402-0.804-0.402-1.391c0-0.41,0.072-0.807,0.218-1.188s0.343-0.72,0.594-1.017
		c0.244-0.287,0.538-0.519,0.882-0.696s0.702-0.267,1.076-0.267c0.225,0,0.448,0.029,0.67,0.088
		c0.221,0.059,0.404,0.131,0.547,0.215l0.381-1.66c0.02-0.088,0.033-0.156,0.042-0.205c0.008-0.049,0.013-0.103,0.013-0.161
		c0-0.117-0.024-0.207-0.071-0.269c-0.048-0.062-0.113-0.107-0.198-0.137c-0.078-0.029-0.186-0.049-0.322-0.059
		s-0.26-0.021-0.371-0.034l0.068-0.298l1.979-0.107l0.049,0.073l-1.355,5.854c-0.025,0.107-0.053,0.23-0.08,0.369
		c-0.027,0.138-0.041,0.243-0.041,0.314c0,0.186,0.039,0.312,0.117,0.379c0.078,0.066,0.209,0.1,0.395,0.1
		c0.063,0,0.15-0.01,0.264-0.029c0.114-0.02,0.202-0.041,0.264-0.063l-0.072,0.313c-0.274,0.124-0.501,0.21-0.681,0.259
		c-0.179,0.049-0.346,0.073-0.499,0.073c-0.234,0-0.422-0.062-0.561-0.184C184.524,171.113,184.455,170.923,184.455,170.666z
		 M185.15,167.552c-0.008-0.095-0.031-0.187-0.074-0.276c-0.042-0.09-0.096-0.17-0.161-0.242c-0.075-0.081-0.172-0.148-0.29-0.202
		c-0.119-0.054-0.261-0.081-0.424-0.081c-0.25,0-0.488,0.078-0.711,0.234s-0.42,0.365-0.589,0.626
		c-0.163,0.251-0.294,0.554-0.392,0.907s-0.146,0.708-0.146,1.063c0,0.199,0.012,0.375,0.035,0.528
		c0.022,0.153,0.066,0.295,0.131,0.426c0.063,0.12,0.15,0.216,0.264,0.285c0.114,0.07,0.266,0.105,0.455,0.105
		c0.178,0,0.373-0.054,0.582-0.161c0.211-0.107,0.444-0.295,0.701-0.563L185.15,167.552z"/>
	<path fill="#60A5FA" d="M190.23,170.675l-0.035-0.01c-0.064,0.053-0.156,0.126-0.275,0.22c-0.119,0.095-0.244,0.178-0.373,0.25
		c-0.15,0.088-0.302,0.159-0.455,0.215c-0.152,0.056-0.322,0.083-0.508,0.083c-0.472,0-0.836-0.167-1.091-0.501
		s-0.384-0.794-0.384-1.381c0-0.404,0.074-0.797,0.223-1.178s0.351-0.72,0.607-1.017c0.248-0.287,0.544-0.518,0.889-0.691
		c0.346-0.175,0.707-0.262,1.084-0.262c0.234,0,0.457,0.03,0.664,0.091c0.209,0.06,0.377,0.131,0.504,0.212l0.893-0.229l0.059,0.073
		l-0.819,3.851c-0.124,0.583-0.282,1.075-0.476,1.478c-0.194,0.402-0.418,0.721-0.672,0.956c-0.261,0.24-0.548,0.412-0.862,0.515
		c-0.313,0.103-0.669,0.154-1.067,0.154c-0.27,0-0.49-0.021-0.661-0.063s-0.306-0.098-0.403-0.166s-0.163-0.146-0.197-0.231
		c-0.034-0.087-0.051-0.169-0.051-0.247c0-0.146,0.043-0.27,0.131-0.368c0.088-0.1,0.209-0.149,0.361-0.149
		c0.121,0,0.224,0.035,0.309,0.104c0.084,0.07,0.152,0.146,0.205,0.228c0.055,0.085,0.108,0.186,0.16,0.303
		c0.053,0.117,0.092,0.205,0.117,0.264h0.146c0.18,0,0.371-0.041,0.576-0.122s0.393-0.213,0.563-0.396
		c0.172-0.189,0.333-0.442,0.482-0.76C190.023,171.582,190.142,171.173,190.23,170.675z M190.879,167.552
		c0-0.092-0.014-0.185-0.042-0.281c-0.027-0.096-0.078-0.185-0.152-0.267c-0.072-0.078-0.163-0.14-0.273-0.186
		c-0.111-0.046-0.252-0.068-0.424-0.068c-0.251,0-0.487,0.076-0.71,0.228s-0.423,0.359-0.603,0.623
		c-0.165,0.248-0.301,0.548-0.404,0.899c-0.104,0.353-0.156,0.706-0.156,1.061c0,0.192,0.014,0.369,0.042,0.531
		c0.028,0.161,0.075,0.302,0.144,0.423c0.068,0.12,0.159,0.214,0.271,0.28c0.112,0.067,0.258,0.101,0.438,0.101
		c0.228,0,0.453-0.066,0.678-0.198s0.438-0.301,0.641-0.506L190.879,167.552z"/>
	<path fill="#60A5FA" d="M197.017,167.421c0,0.346-0.109,0.643-0.325,0.89c-0.216,0.248-0.531,0.445-0.944,0.592
		c-0.303,0.111-0.609,0.201-0.918,0.27c-0.31,0.068-0.651,0.125-1.025,0.171c0,0.515,0.095,0.907,0.285,1.18
		c0.19,0.271,0.47,0.407,0.838,0.407c0.325,0,0.612-0.081,0.861-0.244s0.494-0.405,0.734-0.728l0.279,0.205
		c-0.261,0.397-0.586,0.715-0.977,0.952s-0.797,0.356-1.217,0.356c-0.576,0-1.016-0.161-1.32-0.483
		c-0.305-0.323-0.457-0.781-0.457-1.374c0-0.41,0.064-0.802,0.193-1.175c0.129-0.374,0.316-0.715,0.564-1.024
		c0.24-0.303,0.535-0.548,0.886-0.733s0.736-0.278,1.159-0.278c0.469,0,0.816,0.096,1.043,0.286S197.017,167.125,197.017,167.421z
		 M196.119,167.301c0-0.127-0.019-0.227-0.055-0.3c-0.035-0.073-0.081-0.128-0.137-0.163c-0.059-0.039-0.12-0.063-0.186-0.073
		c-0.064-0.01-0.131-0.015-0.199-0.015c-0.391,0-0.752,0.215-1.082,0.644s-0.539,0.963-0.627,1.603
		c0.228-0.032,0.484-0.079,0.771-0.139c0.286-0.061,0.523-0.139,0.713-0.236c0.27-0.14,0.471-0.319,0.603-0.538
		C196.052,167.864,196.119,167.603,196.119,167.301z"/>
</g>
<g opacity="0.6" enable-background="new    ">
	<circle fill="#1E3A8A" cx="85.038" cy="106.297" r="2.126"/>
</g>
<g opacity="0.6" enable-background="new    ">
	<circle fill="#2563EB" cx="198.421" cy="106.297" r="2.126"/>
</g>
<g>
	<g>
		<polygon fill="#364157" points="114.866,110.26 114.866,125.77 142.455,135.021 170.042,125.77 170.042,110.26 142.455,120.195 		
			"/>
	</g>
	<g>
		<path fill="#364157" d="M107.657,105.258l34.797,12.333l45.172-16.009L142.373,85.49l-45.089,16.092l8.181,2.9h-0.094v22.748
			l-4.411,11.109c0,0,5.473,6.616,11.027,0l-4.329-11.109L107.657,105.258L107.657,105.258z"/>
	</g>
</g>
</svg>
