<?xml version="1.0" encoding="utf-8"?>
<!-- Generator: Adobe Illustrator 24.0.2, SVG Export Plug-In . SVG Version: 6.00 Build 0)  -->
<svg version="1.1" id="Layer_1" xmlns="http://www.w3.org/2000/svg" xmlns:xlink="http://www.w3.org/1999/xlink" x="0px" y="0px"
	 viewBox="0 0 355.1 99.1" style="enable-background:new 0 0 355.1 99.1;" xml:space="preserve">
<style type="text/css">
	.st0{opacity:0.8;enable-background:new    ;}
	.st1{fill:#1E3A8A;}
	.st2{fill:#1E40AF;}
	.st3{fill:#2563EB;}
	.st4{fill:#3B82F6;}
	.st5{fill:#60A5FA;}
	.st6{fill:#93C5FD;}
	.st7{fill:#BFDBFE;}
	.st8{opacity:0.6;enable-background:new    ;}
	.st9{fill:#364157;}
</style>
<g class="st0">
	<path class="st1" d="M141,82.5h-6.2c0-34.4-28-62.3-62.3-62.3s-62.3,28-62.3,62.3H4.1c0-37.8,30.7-68.5,68.5-68.5
		S141,44.8,141,82.5z"/>
</g>
<g class="st0">
	<path class="st2" d="M135.1,82.5h-5.4c0-31.6-25.7-57.2-57.2-57.2S15.3,51,15.3,82.5H9.9C9.9,48,38,19.9,72.5,19.9
		C107.1,19.9,135.1,48,135.1,82.5z"/>
</g>
<g class="st0">
	<path class="st3" d="M129.3,82.5h-4.6c0-28.8-23.4-52.2-52.2-52.2S20.3,53.8,20.3,82.5h-4.6c0-31.3,25.5-56.8,56.8-56.8
		S129.3,51.2,129.3,82.5z"/>
</g>
<g class="st0">
	<path class="st4" d="M123.5,82.5h-3.8c0-26-21.1-47.1-47.1-47.1c-26,0-47.1,21.1-47.1,47.1h-3.8c0-28.1,22.9-51,51-51
		S123.5,54.4,123.5,82.5z"/>
</g>
<g class="st0">
	<path class="st5" d="M117.6,82.5h-3.1c0-23.2-18.9-42.1-42.1-42.1S30.5,59.3,30.5,82.5h-3.1c0-24.9,20.2-45.1,45.1-45.1
		C97.4,37.4,117.6,57.7,117.6,82.5z"/>
</g>
<g class="st0">
	<path class="st6" d="M111.8,82.5h-2.3c0-20.4-16.6-37-37-37s-37,16.6-37,37h-2.3c0-21.7,17.6-39.3,39.3-39.3
		C94.2,43.2,111.8,60.9,111.8,82.5z"/>
</g>
<g class="st0">
	<path class="st7" d="M106,82.5h-1.5c0-17.6-14.3-31.9-31.9-31.9S40.6,64.9,40.6,82.5h-1.5c0-18.5,15-33.5,33.5-33.5
		S106,64.1,106,82.5z"/>
</g>
<g>
	<g>
		<path class="st1" d="M171.7,66.6l-0.2,0.7c-0.2,0-0.5,0-0.8,0.1s-0.5,0.1-0.7,0.2c-0.3,0.1-0.5,0.2-0.6,0.4
			c-0.1,0.2-0.2,0.4-0.3,0.6l-2.5,10.6c0,0.1,0,0.1,0,0.2s0,0.1,0,0.2c0,0.1,0,0.3,0.1,0.4c0.1,0.1,0.2,0.2,0.3,0.3
			c0.1,0.1,0.3,0.1,0.6,0.2c0.3,0.1,0.6,0.1,0.7,0.1l-0.2,0.7h-6.5l0.2-0.7c0.2,0,0.6,0,0.9-0.1c0.4,0,0.6-0.1,0.8-0.2
			c0.2-0.1,0.4-0.3,0.6-0.5s0.2-0.4,0.3-0.6l2.5-10.9H167l-8,12.7h-0.5l-1.8-12.9h-0.1l-2.1,9c-0.1,0.4-0.2,0.7-0.2,1.1
			c-0.1,0.3-0.1,0.6-0.1,0.8c0,0.2,0,0.4,0.1,0.6s0.1,0.3,0.2,0.4c0.1,0.1,0.4,0.3,0.8,0.4c0.4,0.1,0.7,0.2,0.9,0.2l-0.2,0.7h-5.9
			l0.2-0.7c0.3,0,0.6-0.1,1-0.1s0.6-0.2,0.9-0.4c0.3-0.2,0.5-0.5,0.7-0.9c0.2-0.4,0.4-1.1,0.6-2l1.8-7.6c0-0.2,0.1-0.3,0.1-0.4
			c0-0.1,0-0.3,0-0.4c0-0.2,0-0.4-0.1-0.6c-0.1-0.1-0.1-0.3-0.2-0.4c-0.2-0.2-0.4-0.3-0.7-0.4c-0.3-0.1-0.6-0.1-0.8-0.1l0.2-0.7h4.9
			l1.6,11l5.7-9.2c0.2-0.4,0.4-0.7,0.6-1.1c0.2-0.4,0.3-0.6,0.3-0.7H171.7z"/>
		<path class="st1" d="M177.3,81.6c-1.4,0-2.6-0.3-3.4-0.9c-0.8-0.6-1.2-1.4-1.2-2.4c0-0.1,0-0.3,0-0.4c0-0.1,0-0.3,0.1-0.4l2-8.7
			c0-0.1,0-0.1,0-0.2c0-0.1,0-0.1,0-0.2c0-0.1,0-0.3-0.1-0.4c-0.1-0.1-0.2-0.2-0.3-0.3c-0.2-0.1-0.4-0.2-0.6-0.2
			c-0.3-0.1-0.5-0.1-0.6-0.1l0.2-0.7h6.1l-0.2,0.7c-0.2,0-0.4,0-0.7,0.1s-0.5,0.1-0.7,0.2c-0.3,0.1-0.5,0.2-0.6,0.4
			c-0.1,0.2-0.2,0.4-0.3,0.6l-1.9,8.1c0,0.2-0.1,0.4-0.1,0.6c0,0.2,0,0.4,0,0.6c0,0.4,0,0.7,0.1,0.9c0.1,0.3,0.2,0.5,0.5,0.8
			c0.2,0.2,0.5,0.4,0.9,0.6c0.4,0.1,0.9,0.2,1.4,0.2c0.8,0,1.5-0.1,2-0.4c0.6-0.2,1-0.5,1.4-0.9c0.4-0.4,0.6-0.7,0.9-1.2
			c0.2-0.4,0.4-0.8,0.5-1.2c0.2-1,0.5-2,0.7-2.9c0.2-0.9,0.4-2,0.7-3.1c0.1-0.6,0.2-1,0.2-1.3c0-0.3,0.1-0.6,0.1-0.8
			c0-0.2,0-0.4-0.1-0.5c0-0.1-0.1-0.2-0.2-0.3c-0.2-0.2-0.5-0.3-0.9-0.4c-0.4-0.1-0.7-0.2-0.9-0.2l0.2-0.7h6l-0.2,0.7
			c-0.2,0-0.5,0.1-0.9,0.1c-0.4,0.1-0.7,0.2-1,0.3c-0.3,0.2-0.5,0.5-0.7,1.1s-0.4,1.1-0.5,1.8c-0.2,1-0.4,2-0.7,3
			c-0.2,1-0.5,2.1-0.8,3.3c-0.2,1-0.6,1.7-1.1,2.4c-0.5,0.6-1,1.1-1.6,1.5c-0.6,0.3-1.2,0.6-1.8,0.7C178.6,81.5,178,81.6,177.3,81.6
			z"/>
		<path class="st1" d="M199,66.6l-0.2,0.7c-0.2,0-0.4,0-0.7,0.1c-0.3,0-0.6,0.1-0.8,0.2c-0.3,0.1-0.5,0.2-0.6,0.4s-0.2,0.4-0.3,0.6
			l-2,8.7c-0.1,0.5-0.3,0.9-0.6,1.5c-0.3,0.5-0.7,1-1.1,1.4c-0.5,0.4-1,0.8-1.6,1.1c-0.6,0.3-1.3,0.4-2.1,0.4c-1,0-1.7-0.2-2.3-0.7
			s-0.9-1.1-0.9-2c0-0.7,0.2-1.3,0.5-1.8c0.3-0.5,0.8-0.8,1.3-0.8c0.4,0,0.7,0.1,0.9,0.3c0.2,0.2,0.3,0.4,0.3,0.7
			c0,0.2-0.1,0.5-0.2,0.7c-0.1,0.3-0.3,0.5-0.5,0.7c-0.2,0.2-0.3,0.4-0.5,0.7c-0.2,0.2-0.4,0.4-0.5,0.6c0.1,0.2,0.3,0.4,0.6,0.6
			c0.3,0.2,0.7,0.2,1.3,0.2c0.5,0,0.9-0.1,1.3-0.3c0.4-0.2,0.7-0.5,0.9-0.9c0.2-0.4,0.4-0.8,0.6-1.4c0.2-0.5,0.3-1.1,0.5-1.8
			l1.8-7.8c0,0,0-0.1,0-0.2c0-0.1,0-0.1,0-0.2c0-0.1,0-0.3-0.1-0.4c-0.1-0.1-0.2-0.2-0.3-0.3c-0.2-0.1-0.4-0.2-0.8-0.3
			s-0.6-0.1-0.8-0.1l0.2-0.7L199,66.6L199,66.6z"/>
		<path class="st1" d="M207,66.6l-0.2,0.7c-0.2,0-0.5,0-0.8,0.1s-0.6,0.1-0.8,0.2c-0.3,0.1-0.5,0.2-0.6,0.4
			c-0.1,0.2-0.2,0.4-0.3,0.6l-2.5,10.7c0,0,0,0.1,0,0.2c0,0.1,0,0.1,0,0.2c0,0.2,0,0.3,0.1,0.4c0.1,0.1,0.2,0.2,0.4,0.3
			c0.1,0,0.3,0.1,0.7,0.2c0.4,0.1,0.6,0.1,0.8,0.1l-0.2,0.7H197l0.2-0.7c0.2,0,0.5,0,0.8-0.1s0.6-0.1,0.8-0.1
			c0.3-0.1,0.5-0.2,0.6-0.4s0.2-0.4,0.3-0.6l2.5-10.7c0-0.1,0-0.1,0-0.2c0-0.1,0-0.1,0-0.2c0-0.1,0-0.3-0.1-0.4
			c-0.1-0.1-0.2-0.2-0.4-0.3c-0.2-0.1-0.4-0.2-0.8-0.2c-0.3-0.1-0.6-0.1-0.7-0.1l0.2-0.7L207,66.6L207,66.6z"/>
		<path class="st1" d="M217.6,81.6c-1.4,0-2.6-0.3-3.4-0.9s-1.2-1.4-1.2-2.4c0-0.1,0-0.3,0-0.4c0-0.1,0-0.3,0.1-0.4l2-8.7
			c0-0.1,0-0.1,0-0.2s0-0.1,0-0.2c0-0.1,0-0.3-0.1-0.4c-0.1-0.1-0.2-0.2-0.3-0.3c-0.2-0.1-0.4-0.2-0.6-0.2c-0.3-0.1-0.5-0.1-0.6-0.1
			l0.2-0.7h6.1l-0.2,0.7c-0.2,0-0.4,0-0.7,0.1s-0.5,0.1-0.7,0.2c-0.3,0.1-0.5,0.2-0.6,0.4c-0.1,0.2-0.2,0.4-0.3,0.6l-1.9,8.1
			c0,0.2-0.1,0.4-0.1,0.6c0,0.2,0,0.4,0,0.6c0,0.4,0,0.7,0.1,0.9c0.1,0.3,0.2,0.5,0.5,0.8c0.2,0.2,0.5,0.4,0.9,0.6
			c0.4,0.1,0.9,0.2,1.4,0.2c0.8,0,1.5-0.1,2-0.4c0.6-0.2,1-0.5,1.4-0.9c0.4-0.4,0.6-0.7,0.9-1.2c0.2-0.4,0.4-0.8,0.5-1.2
			c0.2-1,0.5-2,0.7-2.9c0.2-0.9,0.4-2,0.7-3.1c0.1-0.6,0.2-1,0.2-1.3c0-0.3,0.1-0.6,0.1-0.8c0-0.2,0-0.4-0.1-0.5
			c0-0.1-0.1-0.2-0.2-0.3c-0.2-0.2-0.5-0.3-0.9-0.4c-0.4-0.1-0.7-0.2-0.9-0.2l0.2-0.7h6l-0.2,0.7c-0.2,0-0.5,0.1-0.9,0.1
			c-0.4,0.1-0.7,0.2-1,0.3c-0.3,0.2-0.5,0.5-0.7,1.1s-0.4,1.1-0.5,1.8c-0.2,1-0.4,2-0.7,3c-0.2,1-0.5,2.1-0.8,3.3
			c-0.2,1-0.6,1.7-1.1,2.4c-0.5,0.6-1,1.1-1.6,1.5c-0.6,0.3-1.2,0.6-1.8,0.7C218.8,81.5,218.2,81.6,217.6,81.6z"/>
		<path class="st1" d="M244.9,66.6l-0.2,0.7c-0.2,0-0.5,0.1-0.9,0.2c-0.4,0.1-0.7,0.2-0.9,0.3c-0.3,0.2-0.5,0.5-0.7,1
			c-0.2,0.5-0.4,1.1-0.6,1.9l-2.5,10.8h-0.9l-6-12.4l-1.8,8c-0.1,0.4-0.2,0.7-0.2,1.1c-0.1,0.4-0.1,0.7-0.1,0.9c0,0.2,0,0.4,0.1,0.6
			s0.1,0.3,0.2,0.4c0.1,0.1,0.4,0.3,0.9,0.4c0.5,0.1,0.8,0.2,0.9,0.2l-0.2,0.7h-6l0.2-0.7c0.2,0,0.6-0.1,1-0.2
			c0.4-0.1,0.7-0.2,0.9-0.3c0.3-0.2,0.5-0.5,0.7-0.9s0.4-1.1,0.6-2L231,70c0-0.2,0.1-0.4,0.1-0.6c0-0.2,0-0.3,0-0.4
			c0-0.2,0-0.3-0.1-0.5c0-0.1-0.1-0.3-0.3-0.5c-0.2-0.3-0.5-0.5-0.9-0.6c-0.3-0.1-0.7-0.2-0.9-0.2l0.2-0.7h4.2l5.6,11.4l1.7-7.3
			c0.1-0.4,0.2-0.7,0.2-1.1s0.1-0.6,0.1-0.9c0-0.2,0-0.4-0.1-0.6c0-0.2-0.1-0.3-0.2-0.3c-0.2-0.1-0.4-0.3-0.8-0.4s-0.7-0.2-1-0.2
			l0.2-0.7L244.9,66.6L244.9,66.6z"/>
		<path class="st1" d="M252.5,66.6l-0.2,0.7c-0.2,0-0.5,0-0.8,0.1s-0.6,0.1-0.8,0.2c-0.3,0.1-0.5,0.2-0.6,0.4
			c-0.1,0.2-0.2,0.4-0.3,0.6l-2.5,10.7c0,0,0,0.1,0,0.2c0,0.1,0,0.1,0,0.2c0,0.2,0,0.3,0.1,0.4c0.1,0.1,0.2,0.2,0.4,0.3
			c0.1,0,0.3,0.1,0.7,0.2c0.4,0.1,0.6,0.1,0.8,0.1l-0.2,0.7h-6.6l0.2-0.7c0.2,0,0.5,0,0.8-0.1c0.4,0,0.6-0.1,0.8-0.1
			c0.3-0.1,0.5-0.2,0.6-0.4s0.2-0.4,0.3-0.6l2.5-10.7c0-0.1,0-0.1,0-0.2c0-0.1,0-0.1,0-0.2c0-0.1,0-0.3-0.1-0.4s-0.2-0.2-0.4-0.3
			c-0.2-0.1-0.4-0.2-0.8-0.2c-0.3-0.1-0.6-0.1-0.7-0.1l0.2-0.7L252.5,66.6L252.5,66.6z"/>
		<path class="st1" d="M267.8,66.6l-0.2,0.7c-0.2,0-0.4,0-0.7,0.1s-0.5,0.2-0.7,0.3c-0.3,0.2-0.5,0.4-0.7,0.6
			c-0.2,0.2-0.4,0.5-0.6,0.8c-0.7,1.1-1.8,2.8-3.3,5.1c-1.5,2.3-3,4.8-4.5,7.3h-0.9c-0.3-2.3-0.7-4.8-1.1-7.5
			c-0.4-2.7-0.6-4.4-0.7-5.2c0-0.2-0.1-0.4-0.2-0.6c-0.1-0.2-0.2-0.3-0.4-0.4c-0.2-0.1-0.3-0.2-0.6-0.3c-0.2-0.1-0.4-0.1-0.6-0.1
			l0.2-0.7h5.9l-0.2,0.7c-0.7,0-1.2,0.1-1.5,0.2s-0.4,0.3-0.4,0.5c0,0.1,0,0.1,0,0.2c0,0.1,0,0.1,0,0.2c0.1,0.7,0.2,1.8,0.5,3.3
			c0.2,1.6,0.5,3.7,0.9,6.5c1-1.5,1.9-3,2.9-4.6c1-1.6,1.7-2.8,2.1-3.5c0.4-0.7,0.7-1.2,0.8-1.5s0.1-0.5,0.1-0.5
			c0-0.1-0.1-0.3-0.2-0.4s-0.3-0.2-0.5-0.2c-0.2-0.1-0.4-0.1-0.7-0.2s-0.4-0.1-0.6-0.1l0.2-0.7L267.8,66.6L267.8,66.6z"/>
		<path class="st1" d="M279.6,66.6l-0.8,3.5H278c0-0.7-0.2-1.3-0.5-1.8c-0.3-0.5-0.6-0.8-1.1-0.8c-0.2,0-0.5,0-0.8-0.1s-0.6,0-1,0
			h-2.4l-1.4,5.9h1.7c0.5,0,0.9,0,1.2-0.1c0.3-0.1,0.5-0.3,0.8-0.5c0.2-0.2,0.4-0.5,0.6-0.9c0.2-0.4,0.3-0.7,0.4-0.9h0.8l-1.3,5.7
			h-0.8c0-0.1,0-0.2,0-0.3c0-0.1,0-0.2,0-0.3c0-0.3,0-0.5-0.1-0.7c0-0.2-0.1-0.4-0.1-0.5c-0.1-0.3-0.3-0.4-0.6-0.5
			c-0.3-0.1-0.6-0.1-1-0.1h-1.6l-1,4.5c0,0.2-0.1,0.3-0.1,0.5c0,0.2,0,0.3,0,0.5c0,0.4,0.1,0.6,0.4,0.8c0.3,0.1,0.9,0.2,1.8,0.2
			c1.2,0,1.9,0,2.4-0.1c0.4-0.1,0.7-0.2,0.9-0.4c0.4-0.3,0.9-0.8,1.4-1.5s0.9-1.2,1.1-1.5h0.7l-1.3,4.3h-12.2l0.2-0.7
			c0.2,0,0.5,0,0.8-0.1s0.6-0.1,0.7-0.1c0.2-0.1,0.4-0.2,0.6-0.4c0.1-0.2,0.2-0.4,0.3-0.6l2.5-10.6c0-0.1,0-0.1,0-0.2
			c0-0.1,0-0.1,0-0.2c0-0.1,0-0.3-0.1-0.4c-0.1-0.1-0.2-0.2-0.3-0.3c-0.2-0.1-0.4-0.2-0.7-0.2c-0.3-0.1-0.5-0.1-0.7-0.1l0.2-0.7
			L279.6,66.6L279.6,66.6z"/>
		<path class="st1" d="M293.2,80.5l-0.2,0.7h-3.7c-0.6-1.4-1.1-2.6-1.7-3.6c-0.5-1-1.1-2-1.6-3.1h-1.5l-1.1,4.7c0,0.1,0,0.1,0,0.2
			s0,0.1,0,0.2c0,0.2,0,0.3,0.1,0.4c0.1,0.1,0.2,0.2,0.3,0.3c0.1,0,0.3,0.1,0.6,0.1c0.3,0,0.6,0.1,0.8,0.1l-0.2,0.7h-6.2l0.2-0.7
			c0.2,0,0.4,0,0.7-0.1c0.3,0,0.5-0.1,0.7-0.1c0.2-0.1,0.4-0.2,0.6-0.4c0.1-0.2,0.2-0.4,0.3-0.6l2.5-10.7c0-0.1,0-0.1,0-0.2
			c0-0.1,0-0.1,0-0.2c0-0.1,0-0.3-0.1-0.4c-0.1-0.1-0.2-0.2-0.3-0.3c-0.1-0.1-0.4-0.1-0.6-0.2c-0.3-0.1-0.5-0.1-0.7-0.1l0.2-0.7h6.6
			c0.6,0,1.1,0.1,1.6,0.2c0.5,0.1,0.9,0.3,1.2,0.5c0.4,0.2,0.7,0.5,0.9,0.9c0.2,0.4,0.3,0.8,0.3,1.3c0,0.6-0.1,1.2-0.4,1.8
			c-0.2,0.5-0.6,1-1,1.4c-0.4,0.4-0.9,0.7-1.5,1c-0.6,0.3-1.2,0.5-1.8,0.6c0.5,1,1,1.9,1.3,2.5c0.3,0.6,0.7,1.4,1.2,2.2
			c0.2,0.4,0.4,0.8,0.6,1c0.2,0.2,0.4,0.4,0.6,0.5c0.2,0.1,0.4,0.2,0.7,0.2C292.8,80.5,293,80.5,293.2,80.5z M290.2,69.6
			c0-0.7-0.2-1.2-0.6-1.6c-0.4-0.4-1-0.6-1.8-0.6h-1.6l-1.4,6.4h1.5c1.1,0,2.1-0.4,2.9-1.2C289.8,71.8,290.2,70.8,290.2,69.6z"/>
		<path class="st1" d="M299,81.5c-0.8,0-1.6-0.1-2.2-0.3c-0.6-0.2-1.1-0.5-1.5-0.7l-0.6,0.8h-0.8l1-5h0.8c0,0.6,0.1,1.2,0.2,1.7
			c0.1,0.5,0.3,1,0.6,1.4c0.3,0.4,0.7,0.8,1.1,1c0.5,0.2,1,0.4,1.7,0.4c1,0,1.8-0.3,2.5-0.9c0.6-0.6,0.9-1.3,0.9-2.3
			c0-0.5-0.1-1-0.4-1.4c-0.3-0.4-0.7-0.7-1.2-1c-0.5-0.2-1-0.4-1.5-0.6c-0.5-0.2-1-0.4-1.4-0.6c-0.6-0.3-1.1-0.7-1.5-1.3
			c-0.4-0.6-0.6-1.2-0.6-1.9c0-0.7,0.1-1.3,0.4-1.8c0.3-0.6,0.7-1,1.2-1.4c0.5-0.4,1-0.7,1.7-0.9c0.7-0.2,1.3-0.4,2-0.4
			c0.6,0,1.2,0.1,1.7,0.2c0.5,0.1,1.1,0.4,1.6,0.8l0.6-0.7h0.8l-1,4.9h-0.8c0-0.5-0.1-1.1-0.2-1.6c-0.1-0.6-0.2-1-0.4-1.4
			c-0.2-0.4-0.5-0.7-0.9-1c-0.4-0.2-0.9-0.3-1.6-0.3c-0.8,0-1.5,0.3-2,0.8c-0.5,0.6-0.8,1.2-0.8,2c0,0.5,0.1,0.9,0.3,1.3
			s0.5,0.6,0.9,0.9c0.5,0.2,0.9,0.4,1.4,0.6c0.5,0.2,0.9,0.3,1.3,0.5c0.8,0.4,1.4,0.8,1.8,1.3c0.4,0.5,0.7,1.2,0.7,1.9
			c0,0.7-0.2,1.4-0.5,2c-0.3,0.6-0.7,1.2-1.3,1.6c-0.6,0.5-1.2,0.8-1.9,1C300.6,81.4,299.8,81.5,299,81.5z"/>
		<path class="st1" d="M315.3,66.6l-0.2,0.7c-0.2,0-0.5,0-0.8,0.1c-0.3,0.1-0.6,0.1-0.8,0.2c-0.3,0.1-0.5,0.2-0.6,0.4
			c-0.1,0.2-0.2,0.4-0.3,0.6l-2.5,10.7c0,0,0,0.1,0,0.2c0,0.1,0,0.1,0,0.2c0,0.2,0,0.3,0.1,0.4c0.1,0.1,0.2,0.2,0.4,0.3
			c0.1,0,0.3,0.1,0.7,0.2c0.4,0.1,0.6,0.1,0.8,0.1l-0.2,0.7h-6.6l0.2-0.7c0.2,0,0.5,0,0.8-0.1c0.4,0,0.6-0.1,0.8-0.1
			c0.3-0.1,0.5-0.2,0.6-0.4s0.2-0.4,0.3-0.6l2.5-10.7c0-0.1,0-0.1,0-0.2c0-0.1,0-0.1,0-0.2c0-0.1,0-0.3-0.1-0.4
			c-0.1-0.1-0.2-0.2-0.4-0.3c-0.2-0.1-0.4-0.2-0.8-0.2c-0.3-0.1-0.6-0.1-0.7-0.1l0.2-0.7L315.3,66.6L315.3,66.6z"/>
		<path class="st1" d="M329,66.6l-0.9,4h-0.7c0-0.2,0-0.5-0.1-0.9c-0.1-0.4-0.1-0.7-0.3-1c-0.1-0.3-0.3-0.6-0.5-0.8
			c-0.2-0.2-0.4-0.4-0.7-0.4c-0.2,0-0.5,0-0.8-0.1c-0.3,0-0.6,0-0.9,0h-0.6l-2.7,11.8c0,0.1,0,0.1,0,0.2c0,0.1,0,0.1,0,0.2
			c0,0.2,0,0.3,0.1,0.4c0.1,0.1,0.2,0.2,0.4,0.3c0.1,0.1,0.4,0.1,0.7,0.2c0.4,0.1,0.7,0.1,0.9,0.1l-0.2,0.7h-6.9l0.2-0.7
			c0.2,0,0.5,0,0.9-0.1c0.4,0,0.7-0.1,0.9-0.2c0.3-0.1,0.5-0.2,0.6-0.4s0.2-0.4,0.3-0.6l2.8-11.9h-0.5c-0.2,0-0.5,0-0.8,0
			c-0.3,0-0.6,0-1,0.1c-0.2,0-0.5,0.2-0.8,0.4c-0.3,0.2-0.6,0.5-0.9,0.9c-0.3,0.3-0.6,0.7-0.8,1c-0.2,0.3-0.4,0.6-0.5,0.9h-0.7
			l0.9-4L329,66.6L329,66.6z"/>
		<path class="st1" d="M342.7,66.6l-0.2,0.7c-0.1,0-0.3,0.1-0.6,0.1c-0.3,0.1-0.5,0.2-0.6,0.3c-0.3,0.2-0.5,0.3-0.6,0.4
			c-0.1,0.1-0.4,0.3-0.7,0.7c-0.7,0.7-1.3,1.5-2.1,2.4c-0.7,0.9-1.5,1.9-2.3,2.9c-0.4,0.4-0.6,0.8-0.7,1.1c-0.1,0.3-0.3,0.7-0.4,1.2
			l-0.7,2.8c0,0.1,0,0.1,0,0.2s0,0.1,0,0.2c0,0.2,0,0.3,0.1,0.4s0.2,0.2,0.4,0.3c0.2,0.1,0.4,0.1,0.8,0.2c0.4,0.1,0.6,0.1,0.8,0.1
			l-0.2,0.7h-6.8l0.2-0.7c0.2,0,0.5,0,0.9-0.1c0.4,0,0.7-0.1,0.8-0.2c0.3-0.1,0.5-0.2,0.6-0.4c0.1-0.2,0.2-0.4,0.3-0.7l0.7-3.2
			c0-0.1,0-0.2,0.1-0.3s0-0.2,0-0.2c0-0.2,0-0.4-0.1-0.6c-0.1-0.3-0.1-0.5-0.2-0.8c-0.2-0.8-0.5-1.7-0.7-2.5
			c-0.3-0.9-0.5-1.7-0.8-2.5c-0.1-0.4-0.3-0.7-0.4-0.9c-0.1-0.2-0.3-0.4-0.5-0.5c-0.1-0.1-0.3-0.2-0.5-0.2c-0.2-0.1-0.4-0.1-0.6-0.1
			l0.2-0.7h6l-0.2,0.7c-0.2,0-0.4,0-0.6,0c-0.2,0-0.5,0-0.7,0.1c-0.2,0-0.4,0.1-0.5,0.2c-0.2,0.1-0.2,0.2-0.2,0.3
			c0,0.1,0,0.4,0.1,0.7c0.1,0.3,0.2,0.8,0.4,1.4c0.2,0.6,0.4,1.2,0.6,1.9c0.2,0.7,0.5,1.5,0.7,2.3c1-1.2,1.9-2.3,2.7-3.3
			c0.8-1,1.3-1.7,1.6-2.1c0.2-0.3,0.3-0.5,0.4-0.6c0-0.1,0.1-0.2,0.1-0.2c0-0.2-0.2-0.4-0.5-0.5c-0.3-0.1-0.8-0.2-1.3-0.2l0.2-0.7
			L342.7,66.6L342.7,66.6z"/>
	</g>
</g>
<g class="st8">
	<circle class="st1" cx="17.4" cy="52.6" r="1.8"/>
</g>
<g class="st8">
	<circle class="st3" cx="116.1" cy="55.3" r="1.6"/>
</g>
<g>
	<g>
		<polygon class="st9" points="51.9,58.3 51.9,70.3 73.1,77.4 94.3,70.3 94.3,58.3 73.1,66 		"/>
	</g>
	<g>
		<path class="st9" d="M46.3,54.5L73.1,64l34.7-12.3L73,39.3L38.3,51.7l6.3,2.2h-0.1v17.5l-3.4,8.5c0,0,4.2,5.1,8.5,0l-3.3-8.5
			L46.3,54.5L46.3,54.5z"/>
	</g>
</g>
<g>
	<g>
		<path class="st1" d="M148.9,44.9h34.7v3.6h-34.7V44.9z M153.1,25.1h26.1v15.1h-26.1V25.1z M175,28.5h-17.5v8.2H175V28.5z
			 M164,47.1h4.4v14.2H164V47.1z"/>
		<path class="st1" d="M197.2,28.8h3.5v5.4c0,2.1-0.3,4.2-0.8,6.2c-0.5,2-1.2,3.9-2.2,5.7c-1,1.8-2.1,3.4-3.5,4.7
			c-1.3,1.4-2.8,2.5-4.4,3.3l-2.6-3.5c1.5-0.7,2.8-1.6,4-2.8c1.2-1.2,2.3-2.5,3.1-4s1.5-3.1,2-4.7c0.5-1.6,0.7-3.3,0.7-4.9V28.8z
			 M188.7,26.8h21.4v3.6h-21.4V26.8z M198.1,28.8h3.5v5.4c0,1.6,0.2,3.2,0.7,4.7c0.5,1.6,1.1,3,2,4.4c0.9,1.4,1.9,2.6,3.1,3.7
			c1.2,1.1,2.6,2,4.1,2.6l-2.4,3.5c-1.7-0.8-3.2-1.8-4.5-3.1c-1.3-1.3-2.5-2.8-3.5-4.5c-1-1.7-1.7-3.5-2.2-5.4
			c-0.5-1.9-0.8-3.9-0.8-6V28.8z M214.6,23.1h4.4v38.3h-4.4V23.1z"/>
		<path class="st1" d="M227.2,27.6h14.2v3.6h-9.8v19.1h-4.3V27.6z M227.2,48.6h2.6c1.8,0,3.4,0,4.9-0.1c1.5-0.1,2.9-0.2,4.3-0.3
			c1.4-0.2,2.9-0.4,4.3-0.6l0.4,3.6c-1.5,0.3-3,0.5-4.5,0.7c-1.5,0.2-2.9,0.3-4.5,0.3c-1.5,0.1-3.2,0.1-5,0.1h-2.6V48.6z
			 M245.8,23.8h4.1v35.6h-4.1V23.8z M248.6,38.1h7v3.6h-7V38.1z M254.4,23h4.2v38.3h-4.2V23z"/>
		<path class="st1" d="M264.6,26.8h22.6v3.5h-22.6V26.8z M275.9,31.9c1.8,0,3.4,0.3,4.8,0.9s2.5,1.4,3.3,2.5c0.8,1,1.2,2.3,1.2,3.7
			c0,1.4-0.4,2.6-1.2,3.6c-0.8,1-1.9,1.9-3.3,2.4c-1.4,0.6-3,0.9-4.8,0.9c-1.8,0-3.5-0.3-4.9-0.9c-1.4-0.6-2.5-1.4-3.3-2.4
			c-0.8-1-1.2-2.3-1.2-3.6c0-1.4,0.4-2.7,1.2-3.7c0.8-1,1.9-1.9,3.3-2.5C272.4,32.2,274,31.9,275.9,31.9z M269.3,48.9h25.1v12.5H290
			v-9h-20.8V48.9z M275.9,35.3c-1.5,0-2.8,0.3-3.7,0.9c-0.9,0.6-1.4,1.5-1.4,2.7c0,1.1,0.5,2,1.4,2.6c0.9,0.6,2.2,1,3.7,1
			c1.5,0,2.7-0.3,3.6-1c0.9-0.6,1.4-1.5,1.4-2.6c0-1.1-0.5-2-1.4-2.7C278.6,35.6,277.4,35.3,275.9,35.3z M273.7,22.8h4.4v5.9h-4.4
			V22.8z M290,23.1h4.4v24H290V23.1z M293.2,33.3h6.6v3.6h-6.6V33.3z"/>
		<path class="st1" d="M303.1,52.7h34.6v3.6h-34.6V52.7z M306.5,26.6H331v3.6h-24.5V26.6z M311,40.3h4.3v13.6H311V40.3z M320.5,40.3
			h4.3v13.6h-4.3V40.3z M329.7,26.6h4.4v4c0,1.6,0,3.3,0,5c0,1.7-0.1,3.6-0.3,5.6c-0.2,2-0.5,4.3-0.9,6.7l-4.4-0.5
			c0.6-3.5,1-6.6,1.1-9.3c0.1-2.7,0.2-5.2,0.2-7.6V26.6z"/>
	</g>
</g>
</svg>
